<svg width="126" height="120" viewBox="0 0 126 120" fill="none" xmlns="http://www.w3.org/2000/svg">
<g clip-path="url(#clip0_54_530)">
<path d="M104.833 95.3179H97.2971V66.4388C97.2971 57.3249 93.6766 48.5842 87.2321 42.1397C80.7875 35.6952 72.047 32.0747 62.933 32.0747C53.8191 32.0747 45.0784 35.6952 38.6339 42.1397C32.1894 48.5842 28.569 57.3249 28.569 66.4388V95.3179H21.0332C20.4007 95.3179 19.7942 95.5692 19.3469 96.0164C18.8997 96.4637 18.6484 97.0702 18.6484 97.7027V117.615C18.6484 118.248 18.8997 118.854 19.3469 119.302C19.7942 119.749 20.4007 120 21.0332 120H104.833C105.465 120 106.072 119.749 106.519 119.302C106.966 118.854 107.218 118.248 107.218 117.615V97.7027C107.218 97.0702 106.966 96.4637 106.519 96.0164C106.072 95.5692 105.465 95.3179 104.833 95.3179ZM33.2908 66.4388C33.2908 58.5898 36.4087 51.0623 41.9588 45.5122C47.5089 39.9622 55.0363 36.8442 62.8853 36.8442C70.7343 36.8442 78.2618 39.9622 83.8119 45.5122C89.3619 51.0623 92.4799 58.5898 92.4799 66.4388V95.3179H33.3384L33.2908 66.4388ZM102.448 115.23H23.4179V100.087H102.448V115.23Z" fill="#3A3A3A"/>
<path d="M62.9331 23.4181C63.5655 23.4181 64.1721 23.1669 64.6193 22.7197C65.0665 22.2725 65.3178 21.6658 65.3178 21.0334V2.38471C65.3178 1.75224 65.0665 1.1457 64.6193 0.698478C64.1721 0.251253 63.5655 -3.05176e-05 62.9331 -3.05176e-05C62.3006 -3.05176e-05 61.694 0.251253 61.2468 0.698478C60.7996 1.1457 60.5483 1.75224 60.5483 2.38471V21.0334C60.5483 21.6658 60.7996 22.2725 61.2468 22.7197C61.694 23.1669 62.3006 23.4181 62.9331 23.4181Z" fill="#3A3A3A"/>
<path d="M123.458 60.5485H104.833C104.201 60.5485 103.594 60.7997 103.147 61.2469C102.699 61.6942 102.448 62.3008 102.448 62.9332C102.448 63.5657 102.699 64.1722 103.147 64.6195C103.594 65.0667 104.201 65.318 104.833 65.318H123.458C124.09 65.318 124.697 65.0667 125.144 64.6195C125.591 64.1722 125.843 63.5657 125.843 62.9332C125.843 62.3008 125.591 61.6942 125.144 61.2469C124.697 60.7997 124.09 60.5485 123.458 60.5485Z" fill="#3A3A3A"/>
<path d="M23.4181 62.9332C23.4181 62.3008 23.1669 61.6942 22.7196 61.2469C22.2724 60.7997 21.6659 60.5485 21.0334 60.5485H2.38474C1.75227 60.5485 1.14573 60.7997 0.698508 61.2469C0.251283 61.6942 0 62.3008 0 62.9332C0 63.5657 0.251283 64.1722 0.698508 64.6195C1.14573 65.0667 1.75227 65.318 2.38474 65.318H21.0334C21.6659 65.318 22.2724 65.0667 22.7196 64.6195C23.1669 64.1722 23.4181 63.5657 23.4181 62.9332Z" fill="#3A3A3A"/>
<path d="M92.5517 35.6757C92.8656 35.6775 93.1767 35.6173 93.4673 35.4986C93.7578 35.38 94.0221 35.2051 94.2449 34.9841L107.409 21.8204C107.632 21.5987 107.81 21.3349 107.931 21.0443C108.052 20.7537 108.114 20.442 108.114 20.1272C108.114 19.8124 108.052 19.5007 107.931 19.2101C107.81 18.9195 107.632 18.6557 107.409 18.434C106.962 17.9899 106.357 17.7405 105.727 17.7405C105.097 17.7405 104.493 17.9899 104.046 18.434L90.8825 31.6216C90.4383 32.0684 90.189 32.6729 90.189 33.3029C90.189 33.9329 90.4383 34.5373 90.8825 34.9841C91.3266 35.4247 91.9261 35.6731 92.5517 35.6757Z" fill="#3A3A3A"/>
<path d="M31.6219 34.9841C32.0687 35.4283 32.673 35.6776 33.3031 35.6776C33.9331 35.6776 34.5375 35.4283 34.9843 34.9841C35.4285 34.5373 35.6778 33.9329 35.6778 33.3029C35.6778 32.6729 35.4285 32.0684 34.9843 31.6216L21.8205 18.434C21.3715 17.985 20.7625 17.7327 20.1274 17.7327C19.4923 17.7327 18.8833 17.985 18.4343 18.434C17.9852 18.8831 17.7329 19.4921 17.7329 20.1272C17.7329 20.7622 17.9852 21.3713 18.4343 21.8204L31.6219 34.9841Z" fill="#3A3A3A"/>
</g>
<defs>
<clipPath id="clip0_54_530">
<rect width="125.843" height="120" fill="white"/>
</clipPath>
</defs>
</svg>
