<svg width="154" height="120" viewBox="0 0 154 120" fill="none" xmlns="http://www.w3.org/2000/svg">
<g clip-path="url(#clip0_54_417)">
<path d="M152.205 8.02501L129.37 0.0611115H129.239H129.116H128.854H128.732H128.61H128.558L105.705 7.9901C105.198 8.47271 104.887 9.12582 104.832 9.82388V35.6455C104.831 35.916 104.915 36.18 105.072 36.4007C105.228 36.6214 105.449 36.7878 105.705 36.8767L127.658 44.535V75.4563L105.687 83.0709C105.381 83.1732 105.123 83.3845 104.962 83.6646C104.801 83.9446 104.748 84.274 104.814 84.5903C104.787 84.6929 104.772 84.7985 104.771 84.9047V101.496H84.2932V97.584C84.2973 97.5317 84.2973 97.4792 84.2932 97.4268C84.3426 97.121 84.282 96.8075 84.1221 96.5422C83.9622 96.2768 83.7134 96.0766 83.4199 95.9773L69.16 91.0086H69.0465H68.933H68.7932H68.5401H68.4266H68.2868H68.2431L53.9745 95.9598C53.6827 96.0589 53.4352 96.2577 53.2755 96.5212C53.1158 96.7847 53.054 97.0962 53.1012 97.4007C53.1012 97.4531 53.1012 97.5055 53.1012 97.5666V101.47H31.1656V97.5666C31.1703 97.5114 31.1703 97.4559 31.1656 97.4007C31.2114 97.0952 31.1493 96.7833 30.9899 96.5187C30.8305 96.2541 30.5838 96.0533 30.2923 95.9511L16.0324 90.9824H15.98H15.8665H15.7181H15.4648H15.3688H15.2115L0.934156 95.8987C0.641367 95.9963 0.392819 96.1948 0.23286 96.4587C0.0729004 96.7226 0.0119461 97.0348 0.0609201 97.3396C0.0561781 97.3948 0.0561781 97.4503 0.0609201 97.5055V113.625C0.0598726 113.897 0.143343 114.162 0.299802 114.385C0.456261 114.607 0.677961 114.775 0.934156 114.865L15.1853 119.834C15.3407 119.884 15.5026 119.91 15.6656 119.913C15.7967 119.904 15.926 119.878 16.0499 119.834L30.3185 114.883C30.574 114.794 30.7954 114.627 30.9519 114.407C31.1084 114.186 31.1923 113.922 31.1918 113.652V104.046H53.1274V113.652C53.1264 113.923 53.2099 114.189 53.3663 114.411C53.5228 114.633 53.7445 114.801 54.0007 114.892L68.2606 119.86C68.4152 119.912 68.5779 119.936 68.7409 119.93C68.8692 119.929 68.9962 119.905 69.1163 119.86L83.3851 114.909C83.642 114.822 83.8649 114.657 84.0218 114.435C84.1786 114.214 84.2615 113.949 84.2583 113.678V104.072H104.736V110.691C104.735 110.963 104.818 111.228 104.975 111.451C105.131 111.673 105.353 111.841 105.609 111.931L128.444 119.895C128.599 119.947 128.761 119.971 128.924 119.965C129.052 119.959 129.178 119.935 129.3 119.895L152.152 111.966C152.408 111.875 152.629 111.706 152.785 111.484C152.941 111.262 153.025 110.998 153.026 110.726V84.9047C153.039 84.8032 153.039 84.7005 153.026 84.599C153.093 84.2826 153.042 83.9524 152.881 83.6718C152.719 83.3912 152.46 83.1803 152.152 83.0796L130.173 75.4475V44.5263L152.144 36.9117C152.399 36.82 152.62 36.6517 152.776 36.4298C152.933 36.2079 153.017 35.9431 153.017 35.6717V9.8501C153.03 9.74571 153.03 9.64014 153.017 9.53575C153.086 9.22837 153.042 8.90645 152.892 8.62899C152.743 8.35153 152.499 8.13709 152.205 8.02501ZM15.5783 101.086L4.77641 97.3221L15.5871 93.5672L26.389 97.3396L15.5783 101.086ZM2.62818 99.3392L14.2685 103.4V116.752L2.62818 112.691V99.3392ZM28.5284 112.708L16.8794 116.752V103.391L28.5284 99.348V112.708ZM68.6972 101.121L57.8953 97.357L68.7059 93.6021L79.5079 97.3745L68.6972 101.121ZM55.7472 99.3742L67.3873 103.435V116.778L55.7472 112.726V99.3742ZM69.9983 116.787V103.452L81.6473 99.4091V112.761L69.9983 116.787ZM128.968 16.3645L109.215 9.52701L128.933 2.68956L148.633 9.56192L128.968 16.3645ZM107.399 11.7014L127.614 18.7484V41.8018L107.399 34.746V11.7014ZM128.872 91.5151L109.163 84.6427L128.881 77.8053L148.581 84.6776L128.872 91.5151ZM107.329 102.867V86.7472L127.553 93.7855V116.839L107.338 109.792L107.329 102.867ZM150.388 109.853L130.156 116.839V93.7942L150.388 86.8083V109.853ZM150.449 34.7548L130.217 41.7407V18.6872L150.449 11.7014V34.7548Z" fill="#3A3A3A"/>
</g>
<defs>
<clipPath id="clip0_54_417">
<rect width="153.087" height="120" fill="white"/>
</clipPath>
</defs>
</svg>
