<svg width="86" height="120" viewBox="0 0 86 120" fill="none" xmlns="http://www.w3.org/2000/svg">
<g clip-path="url(#clip0_54_419)">
<path d="M79.4182 3.8147e-06H5.61982C4.12976 0.0013207 2.70109 0.593822 1.64746 1.64745C0.593826 2.70108 0.00131689 4.12973 0 5.61979V114.38C0.00131689 115.87 0.593826 117.299 1.64746 118.353C2.70109 119.406 4.12976 119.999 5.61982 120H79.4182C80.9082 119.999 82.3368 119.406 83.3905 118.353C84.4441 117.299 85.0366 115.87 85.0379 114.38V5.61979C85.0366 4.12973 84.4441 2.70108 83.3905 1.64745C82.3368 0.593822 80.9082 0.0013207 79.4182 3.8147e-06ZM83.3968 114.385C83.3955 115.442 82.9767 116.456 82.2315 117.206C81.4864 117.956 80.4752 118.381 79.4182 118.389H5.61982C4.56275 118.381 3.5516 117.956 2.80645 117.206C2.0613 116.456 1.64249 115.442 1.6412 114.385V5.61979C1.64901 4.56701 2.07068 3.55957 2.81513 2.81512C3.55958 2.07067 4.56704 1.64899 5.61982 1.64118H79.4182C80.4709 1.64899 81.4784 2.07067 82.2228 2.81512C82.9673 3.55957 83.389 4.56701 83.3968 5.61979V114.385ZM45.3015 113.664H39.6867C39.4833 113.68 39.2935 113.772 39.155 113.922C39.0165 114.072 38.9395 114.268 38.9395 114.472C38.9395 114.676 39.0165 114.873 39.155 115.023C39.2935 115.172 39.4833 115.264 39.6867 115.28H45.3015C45.5049 115.264 45.6948 115.172 45.8333 115.023C45.9718 114.873 46.0487 114.676 46.0487 114.472C46.0487 114.268 45.9718 114.072 45.8333 113.922C45.6948 113.772 45.5049 113.68 45.3015 113.664ZM79.443 6.01268H5.59493C5.38079 6.014 5.17588 6.09998 5.02493 6.25186C4.87398 6.40374 4.78926 6.60919 4.78926 6.82333V108.487C4.78926 108.701 4.87414 108.905 5.02524 109.057C5.17633 109.208 5.38125 109.293 5.59493 109.293H79.443C79.549 109.293 79.6541 109.273 79.7521 109.233C79.8502 109.192 79.9393 109.133 80.0142 109.058C80.0891 108.983 80.1484 108.894 80.1887 108.796C80.2289 108.698 80.2493 108.593 80.2487 108.487V6.82831C80.25 6.72167 80.2302 6.61583 80.1903 6.51693C80.1504 6.41803 80.0912 6.32804 80.0163 6.25217C79.9413 6.1763 79.852 6.11607 79.7536 6.07496C79.6552 6.03385 79.5496 6.01268 79.443 6.01268ZM78.6323 107.671H6.40557V18.784H78.6323V107.671ZM78.6323 17.1578H6.40557V7.63397H78.6323V17.1578ZM11.5977 14.6264C12.0674 14.6244 12.5261 14.4833 12.9157 14.2209C13.3053 13.9585 13.6085 13.5866 13.7869 13.152C13.9653 12.7175 14.0109 12.2398 13.918 11.7793C13.8252 11.3188 13.598 10.8962 13.2652 10.5647C12.9323 10.2333 12.5087 10.0078 12.0479 9.91692C11.587 9.82599 11.1095 9.87364 10.6757 10.0539C10.2419 10.2341 9.87123 10.5388 9.61045 10.9295C9.34968 11.3202 9.21051 11.7794 9.2105 12.2492C9.2105 12.8823 9.46201 13.4895 9.90969 13.9371C10.3574 14.3848 10.9646 14.6363 11.5977 14.6363V14.6264ZM11.5977 11.4883C11.7478 11.4902 11.8939 11.5365 12.0177 11.6213C12.1415 11.7061 12.2375 11.8256 12.2935 11.9648C12.3496 12.104 12.3633 12.2567 12.3328 12.4036C12.3023 12.5506 12.2291 12.6852 12.1223 12.7906C12.0155 12.8961 11.8799 12.9675 11.7326 12.9961C11.5853 13.0247 11.4327 13.009 11.2943 12.9511C11.1558 12.8933 11.0376 12.7958 10.9544 12.6709C10.8712 12.5459 10.8268 12.3992 10.8268 12.2492C10.8281 12.0456 10.9099 11.8508 11.0544 11.7073C11.1988 11.5638 11.3941 11.4833 11.5977 11.4833V11.4883ZM17.1031 14.6264C17.5728 14.6244 18.0314 14.4833 18.4211 14.2209C18.8107 13.9585 19.1138 13.5866 19.2922 13.152C19.4706 12.7175 19.5163 12.2398 19.4235 11.7793C19.3306 11.3188 19.1034 10.8962 18.7706 10.5647C18.4377 10.2333 18.0142 10.0078 17.5533 9.91692C17.0924 9.82599 16.615 9.87364 16.1812 10.0539C15.7474 10.2341 15.3767 10.5388 15.1159 10.9295C14.8551 11.3202 14.716 11.7794 14.7159 12.2492C14.7153 12.5628 14.7766 12.8736 14.8963 13.1635C15.016 13.4534 15.1919 13.7168 15.4137 13.9386C15.6355 14.1604 15.8989 14.3362 16.1888 14.4559C16.4787 14.5757 16.7894 14.637 17.1031 14.6363V14.6264ZM17.1031 11.4883C17.2531 11.4902 17.3992 11.5365 17.5231 11.6213C17.6469 11.7061 17.7429 11.8256 17.7989 11.9648C17.855 12.104 17.8687 12.2567 17.8382 12.4036C17.8077 12.5506 17.7345 12.6852 17.6277 12.7906C17.5209 12.8961 17.3853 12.9675 17.238 12.9961C17.0906 13.0247 16.9382 13.009 16.7997 12.9511C16.6613 12.8933 16.543 12.7958 16.4598 12.6709C16.3766 12.5459 16.3323 12.3992 16.3323 12.2492C16.3323 12.1482 16.3522 12.0482 16.391 11.9549C16.4298 11.8617 16.4867 11.777 16.5583 11.7058C16.63 11.6347 16.715 11.5783 16.8085 11.5401C16.902 11.502 17.0021 11.4826 17.1031 11.4833V11.4883ZM22.6135 14.6264C23.0832 14.6244 23.5419 14.4833 23.9315 14.2209C24.3211 13.9585 24.6243 13.5866 24.8027 13.152C24.9811 12.7175 25.0267 12.2398 24.9339 11.7793C24.841 11.3188 24.6138 10.8962 24.281 10.5647C23.9481 10.2333 23.5245 10.0078 23.0637 9.91692C22.6028 9.82599 22.1253 9.87364 21.6915 10.0539C21.2577 10.2341 20.887 10.5388 20.6263 10.9295C20.3655 11.3202 20.2263 11.7794 20.2263 12.2492C20.2257 12.5628 20.2869 12.8736 20.4067 13.1635C20.5264 13.4534 20.7022 13.7168 20.924 13.9386C21.1458 14.1604 21.4092 14.3362 21.6992 14.4559C21.9891 14.5757 22.2998 14.637 22.6135 14.6363V14.6264ZM22.6135 11.4883C22.7636 11.4902 22.9097 11.5365 23.0335 11.6213C23.1573 11.7061 23.2533 11.8256 23.3093 11.9648C23.3654 12.104 23.379 12.2567 23.3486 12.4036C23.3181 12.5506 23.2449 12.6852 23.1381 12.7906C23.0313 12.8961 22.8957 12.9675 22.7483 12.9961C22.601 13.0247 22.4485 13.009 22.3101 12.9511C22.1716 12.8933 22.0533 12.7958 21.9702 12.6709C21.887 12.5459 21.8426 12.3992 21.8426 12.2492C21.8439 12.0456 21.9257 11.8508 22.0702 11.7073C22.2146 11.5638 22.4099 11.4833 22.6135 11.4833V11.4883ZM11.8513 37.2647H73.2314C73.3376 37.2647 73.4428 37.2437 73.5409 37.2029C73.639 37.1621 73.728 37.1023 73.8028 37.027C73.8777 36.9516 73.937 36.8622 73.9772 36.7639C74.0174 36.6656 74.0377 36.5603 74.037 36.4541V24.4834C74.037 24.2697 73.9522 24.0648 73.8011 23.9137C73.65 23.7626 73.4451 23.6777 73.2314 23.6777H11.8513C11.6381 23.679 11.4339 23.7643 11.283 23.9151C11.1322 24.066 11.047 24.2701 11.0457 24.4834V36.464C11.0457 36.6782 11.1304 36.8836 11.2813 37.0355C11.4323 37.1874 11.6372 37.2733 11.8513 37.2746V37.2647ZM12.662 25.2841H72.4207V35.6484H12.662V25.2841ZM11.8513 58.1524H73.2314C73.3376 58.1524 73.4428 58.1314 73.5409 58.0906C73.639 58.0498 73.728 57.99 73.8028 57.9147C73.8777 57.8394 73.937 57.75 73.9772 57.6516C74.0174 57.5533 74.0377 57.448 74.037 57.3418V45.3711C74.037 45.1575 73.9522 44.9525 73.8011 44.8014C73.65 44.6503 73.4451 44.5655 73.2314 44.5655H11.8513C11.6381 44.5668 11.4339 44.6521 11.283 44.8029C11.1322 44.9537 11.047 45.1579 11.0457 45.3711V57.3517C11.0457 57.5659 11.1304 57.7713 11.2813 57.9232C11.4323 58.0751 11.6372 58.1611 11.8513 58.1624V58.1524ZM12.662 46.1718H72.4207V56.5361H12.662V46.1718ZM11.8513 79.0402H73.2314C73.3376 79.0402 73.4428 79.0192 73.5409 78.9784C73.639 78.9376 73.728 78.8778 73.8028 78.8024C73.8777 78.7271 73.937 78.6377 73.9772 78.5394C74.0174 78.441 74.0377 78.3357 74.037 78.2295V66.2589C74.037 66.0452 73.9522 65.8403 73.8011 65.6892C73.65 65.5381 73.4451 65.4532 73.2314 65.4532H11.8513C11.6381 65.4545 11.4339 65.5398 11.283 65.6906C11.1322 65.8414 11.047 66.0456 11.0457 66.2589V78.2395C11.0457 78.4536 11.1304 78.659 11.2813 78.8109C11.4323 78.9628 11.6372 79.0488 11.8513 79.0501V79.0402ZM12.662 67.0596H72.4207V77.4238H12.662V67.0596ZM11.8513 99.9279H73.2314C73.3376 99.9279 73.4428 99.9069 73.5409 99.8661C73.639 99.8253 73.728 99.7655 73.8028 99.6902C73.8777 99.6148 73.937 99.5254 73.9772 99.4271C74.0174 99.3288 74.0377 99.2235 74.037 99.1172V87.1466C74.037 86.9329 73.9522 86.728 73.8011 86.5769C73.65 86.4258 73.4451 86.3409 73.2314 86.3409H11.8513C11.6381 86.3422 11.4339 86.4275 11.283 86.5783C11.1322 86.7291 11.047 86.9333 11.0457 87.1466V99.1272C11.0457 99.3413 11.1304 99.5468 11.2813 99.6987C11.4323 99.8505 11.6372 99.9365 11.8513 99.9378V99.9279ZM12.662 87.9473H72.4207V98.3116H12.662V87.9473Z" fill="#3A3A3A"/>
</g>
<defs>
<clipPath id="clip0_54_419">
<rect width="85.0379" height="120" fill="white"/>
</clipPath>
</defs>
</svg>
