<svg width="145" height="120" viewBox="0 0 145 120" fill="none" xmlns="http://www.w3.org/2000/svg">
<g clip-path="url(#clip0_54_450)">
<path d="M84.1057 29.0328H30.4984C30.3757 29.0328 30.258 29.0815 30.1712 29.1683C30.0844 29.2551 30.0356 29.3728 30.0356 29.4956V62.2585C30.0356 62.3812 30.0844 62.4989 30.1712 62.5857C30.258 62.6725 30.3757 62.7212 30.4984 62.7212H84.1057C84.2284 62.7212 84.3461 62.6725 84.4329 62.5857C84.5197 62.4989 84.5685 62.3812 84.5685 62.2585V29.4956C84.5685 29.3728 84.5197 29.2551 84.4329 29.1683C84.3461 29.0815 84.2284 29.0328 84.1057 29.0328ZM83.6429 29.9584V34.8362H30.9612V29.9584H83.6429ZM30.9612 61.7957V35.7618H83.6429V61.7957H30.9612Z" fill="black"/>
<path d="M34.75 33.7101C35.1193 33.7093 35.4733 33.562 35.7341 33.3005C35.995 33.0391 36.1415 32.6848 36.1415 32.3155C36.1415 31.9465 35.9949 31.5926 35.7339 31.3316C35.473 31.0706 35.1191 30.924 34.75 30.924C34.3807 30.924 34.0265 31.0705 33.765 31.3314C33.5036 31.5923 33.3563 31.9462 33.3555 32.3155C33.3563 32.6851 33.5035 33.0394 33.7648 33.3007C34.0262 33.5621 34.3804 33.7093 34.75 33.7101ZM34.75 31.8589C34.8733 31.8597 34.9914 31.9091 35.0786 31.9962C35.1658 32.0834 35.2151 32.2015 35.2159 32.3248C35.2159 32.4486 35.1669 32.5674 35.0796 32.6553C34.9924 32.7432 34.8739 32.7929 34.75 32.7938C34.6256 32.7938 34.5064 32.7443 34.4184 32.6564C34.3305 32.5684 34.2811 32.4492 34.2811 32.3248C34.2802 32.2627 34.2918 32.201 34.315 32.1434C34.3382 32.0858 34.3726 32.0334 34.4162 31.9892C34.4598 31.945 34.5118 31.9099 34.5691 31.8859C34.6264 31.862 34.6879 31.8496 34.75 31.8496V31.8589Z" fill="black"/>
<path d="M38.912 33.7101C39.2816 33.7093 39.6358 33.5621 39.8972 33.3007C40.1585 33.0394 40.3057 32.6851 40.3065 32.3155C40.3057 31.9462 40.1584 31.5923 39.897 31.3314C39.6355 31.0705 39.2813 30.924 38.912 30.924C38.5429 30.924 38.189 31.0706 37.9281 31.3316C37.6671 31.5926 37.5205 31.9465 37.5205 32.3155C37.5205 32.6848 37.667 33.0391 37.9279 33.3005C38.1887 33.562 38.5427 33.7093 38.912 33.7101ZM38.912 31.8589C39.0358 31.8589 39.1546 31.9079 39.2425 31.9952C39.3304 32.0824 39.3801 32.2009 39.3809 32.3248C39.3809 32.4492 39.3315 32.5684 39.2436 32.6564C39.1556 32.7443 39.0364 32.7938 38.912 32.7938C38.7881 32.7929 38.6696 32.7432 38.5824 32.6553C38.4951 32.5674 38.4461 32.4486 38.4461 32.3248C38.4453 32.2629 38.4567 32.2015 38.4797 32.1441C38.5027 32.0867 38.5369 32.0344 38.5802 31.9903C38.6235 31.9461 38.6751 31.9109 38.732 31.8868C38.789 31.8627 38.8501 31.85 38.912 31.8496V31.8589Z" fill="black"/>
<path d="M43.077 33.7101C43.4466 33.7093 43.8009 33.5621 44.0622 33.3007C44.3236 33.0394 44.4708 32.6851 44.4716 32.3155C44.4708 31.9462 44.3235 31.5923 44.062 31.3314C43.8006 31.0705 43.4464 30.924 43.077 30.924C42.708 30.924 42.354 31.0706 42.0931 31.3316C41.8321 31.5926 41.6855 31.9465 41.6855 32.3155C41.6855 32.6848 41.832 33.0391 42.0929 33.3005C42.3538 33.562 42.7077 33.7093 43.077 33.7101ZM43.077 31.8589C43.2009 31.8589 43.3197 31.9079 43.4075 31.9952C43.4954 32.0824 43.5452 32.2009 43.546 32.3248C43.546 32.4492 43.4966 32.5684 43.4086 32.6564C43.3207 32.7443 43.2014 32.7938 43.077 32.7938C43.0156 32.7938 42.9547 32.7816 42.898 32.758C42.8413 32.7344 42.7898 32.6998 42.7465 32.6562C42.7032 32.6126 42.6689 32.5609 42.6457 32.504C42.6225 32.4471 42.6107 32.3862 42.6111 32.3248C42.6099 32.2628 42.621 32.2012 42.6439 32.1437C42.6668 32.0861 42.7009 32.0336 42.7443 31.9894C42.7877 31.9451 42.8394 31.91 42.8966 31.886C42.9537 31.862 43.0151 31.8496 43.077 31.8496V31.8589Z" fill="black"/>
<path d="M80.835 53.5579H67.4447C67.322 53.5579 67.2043 53.6066 67.1175 53.6934C67.0307 53.7802 66.9819 53.8979 66.9819 54.0207V59.025C66.9819 59.1478 67.0307 59.2655 67.1175 59.3523C67.2043 59.4391 67.322 59.4878 67.4447 59.4878H80.835C80.9577 59.4878 81.0754 59.4391 81.1622 59.3523C81.249 59.2655 81.2978 59.1478 81.2978 59.025V54.0207C81.2978 53.8979 81.249 53.7802 81.1622 53.6934C81.0754 53.6066 80.9577 53.5579 80.835 53.5579ZM80.3722 58.5622H67.9075V54.4835H80.3722V58.5622Z" fill="black"/>
<path d="M80.835 45.243H67.4447C67.322 45.243 67.2043 45.2917 67.1175 45.3785C67.0307 45.4653 66.9819 45.583 66.9819 45.7058V50.7132C66.9819 50.836 67.0307 50.9537 67.1175 51.0405C67.2043 51.1273 67.322 51.176 67.4447 51.176H80.835C80.9577 51.176 81.0754 51.1273 81.1622 51.0405C81.249 50.9537 81.2978 50.836 81.2978 50.7132V45.7088C81.2982 45.6478 81.2865 45.5873 81.2634 45.5308C81.2403 45.4743 81.2063 45.4229 81.1633 45.3796C81.1203 45.3363 81.0691 45.3019 81.0128 45.2785C80.9564 45.255 80.896 45.243 80.835 45.243ZM80.3722 50.2473H67.9075V46.1686H80.3722V50.2473Z" fill="black"/>
<path d="M44.2835 38.7453H33.8212C33.6985 38.7453 33.5807 38.7941 33.4939 38.8809C33.4072 38.9677 33.3584 39.0854 33.3584 39.2081V56.4673C33.3584 56.5901 33.4072 56.7078 33.4939 56.7946C33.5807 56.8814 33.6985 56.9301 33.8212 56.9301H44.2835C44.4062 56.9301 44.5239 56.8814 44.6107 56.7946C44.6975 56.7078 44.7463 56.5901 44.7463 56.4673V39.2081C44.7463 39.0854 44.6975 38.9677 44.6107 38.8809C44.5239 38.7941 44.4062 38.7453 44.2835 38.7453ZM43.8207 56.0045H34.284V39.6709H43.8207V56.0045Z" fill="black"/>
<path d="M91.7696 19.095C91.0506 19.0942 90.3613 18.8082 89.8528 18.2998C89.3444 17.7913 89.0584 17.102 89.0576 16.383C89.0592 15.6642 89.3455 14.9754 89.8537 14.4671C90.362 13.9589 91.0508 13.6726 91.7696 13.671C92.4886 13.6718 93.178 13.9578 93.6864 14.4662C94.1948 14.9746 94.4808 15.664 94.4816 16.383C94.4808 17.102 94.1948 17.7913 93.6864 18.2998C93.178 18.8082 92.4886 19.0942 91.7696 19.095ZM91.7696 14.5966C91.2961 14.5974 90.8422 14.7859 90.5073 15.1207C90.1725 15.4556 89.984 15.9095 89.9832 16.383C89.9832 16.8568 90.1714 17.3112 90.5064 17.6462C90.8414 17.9812 91.2958 18.1694 91.7696 18.1694C92.2434 18.1694 92.6978 17.9812 93.0328 17.6462C93.3678 17.3112 93.556 16.8568 93.556 16.383C93.556 15.9092 93.3678 15.4548 93.0328 15.1198C92.6978 14.7848 92.2434 14.5966 91.7696 14.5966Z" fill="black"/>
<path d="M10.7709 13.2452C10.6482 13.2452 10.5304 13.1965 10.4437 13.1097C10.3569 13.0229 10.3081 12.9052 10.3081 12.7824V11.3447C10.3081 11.2219 10.3569 11.1042 10.4437 11.0174C10.5304 10.9306 10.6482 10.8819 10.7709 10.8819C10.8934 10.8827 11.0106 10.9317 11.0972 11.0183C11.1839 11.1049 11.2329 11.2222 11.2337 11.3447V12.7824C11.2337 12.9052 11.1849 13.0229 11.0982 13.1097C11.0114 13.1965 10.8936 13.2452 10.7709 13.2452Z" fill="black"/>
<path d="M10.7709 17.8639C10.6482 17.8639 10.5304 17.8152 10.4437 17.7284C10.3569 17.6416 10.3081 17.5239 10.3081 17.4011V15.9634C10.3081 15.8406 10.3569 15.7229 10.4437 15.6361C10.5304 15.5493 10.6482 15.5006 10.7709 15.5006C10.8934 15.5014 11.0106 15.5504 11.0972 15.637C11.1839 15.7237 11.2329 15.8409 11.2337 15.9634V17.3919C11.2349 17.4534 11.2239 17.5146 11.2012 17.5718C11.1785 17.6291 11.1446 17.6812 11.1015 17.7251C11.0584 17.7691 11.0069 17.804 10.9502 17.8278C10.8934 17.8517 10.8325 17.8639 10.7709 17.8639Z" fill="black"/>
<path d="M13.7975 14.8372H12.3598C12.237 14.8372 12.1193 14.7885 12.0325 14.7017C11.9457 14.6149 11.897 14.4972 11.897 14.3744C11.897 14.2517 11.9457 14.134 12.0325 14.0472C12.1193 13.9604 12.237 13.9116 12.3598 13.9116H13.7975C13.9203 13.9116 14.038 13.9604 14.1248 14.0472C14.2116 14.134 14.2603 14.2517 14.2603 14.3744C14.2603 14.4972 14.2116 14.6149 14.1248 14.7017C14.038 14.7885 13.9203 14.8372 13.7975 14.8372Z" fill="black"/>
<path d="M9.18814 14.8372H7.75039C7.62765 14.8372 7.50994 14.7885 7.42314 14.7017C7.33635 14.6149 7.2876 14.4972 7.2876 14.3744C7.2876 14.2517 7.33635 14.134 7.42314 14.0472C7.50994 13.9604 7.62765 13.9116 7.75039 13.9116H9.18814C9.31088 13.9116 9.4286 13.9604 9.51539 14.0472C9.60218 14.134 9.65094 14.2517 9.65094 14.3744C9.65094 14.4972 9.60218 14.6149 9.51539 14.7017C9.4286 14.7885 9.31088 14.8372 9.18814 14.8372Z" fill="black"/>
<path d="M23.9511 72.7917C23.8283 72.7917 23.7106 72.7429 23.6238 72.6561C23.5371 72.5693 23.4883 72.4516 23.4883 72.3289V70.8942C23.4883 70.7715 23.5371 70.6538 23.6238 70.567C23.7106 70.4802 23.8283 70.4314 23.9511 70.4314C24.0738 70.4314 24.1915 70.4802 24.2783 70.567C24.3651 70.6538 24.4139 70.7715 24.4139 70.8942V72.3289C24.4139 72.4516 24.3651 72.5693 24.2783 72.6561C24.1915 72.7429 24.0738 72.7917 23.9511 72.7917Z" fill="black"/>
<path d="M23.9511 77.4104C23.8283 77.4104 23.7106 77.3616 23.6238 77.2748C23.5371 77.1881 23.4883 77.0703 23.4883 76.9476V75.5129C23.4883 75.3902 23.5371 75.2725 23.6238 75.1857C23.7106 75.0989 23.8283 75.0501 23.9511 75.0501C24.0738 75.0501 24.1915 75.0989 24.2783 75.1857C24.3651 75.2725 24.4139 75.3902 24.4139 75.5129V76.9383C24.4151 76.9999 24.4041 77.0611 24.3814 77.1183C24.3586 77.1755 24.3247 77.2276 24.2816 77.2716C24.2385 77.3155 24.1871 77.3505 24.1304 77.3743C24.0736 77.3981 24.0126 77.4104 23.9511 77.4104Z" fill="black"/>
<path d="M26.9777 74.3837H25.5399C25.4172 74.3837 25.2995 74.335 25.2127 74.2482C25.1259 74.1614 25.0771 74.0437 25.0771 73.9209C25.0771 73.7982 25.1259 73.6805 25.2127 73.5937C25.2995 73.5069 25.4172 73.4581 25.5399 73.4581H26.9777C27.1004 73.4581 27.2181 73.5069 27.3049 73.5937C27.3917 73.6805 27.4405 73.7982 27.4405 73.9209C27.4405 74.0437 27.3917 74.1614 27.3049 74.2482C27.2181 74.335 27.1004 74.3837 26.9777 74.3837Z" fill="black"/>
<path d="M22.359 74.3837H20.912C20.7893 74.3837 20.6716 74.335 20.5848 74.2482C20.498 74.1614 20.4492 74.0437 20.4492 73.9209C20.4492 73.7982 20.498 73.6805 20.5848 73.5937C20.6716 73.5069 20.7893 73.4581 20.912 73.4581H22.3498C22.4725 73.4581 22.5902 73.5069 22.677 73.5937C22.7638 73.6805 22.8126 73.7982 22.8126 73.9209C22.8126 74.0421 22.7651 74.1584 22.6803 74.2449C22.5955 74.3315 22.4802 74.3813 22.359 74.3837Z" fill="black"/>
<path d="M130.808 58.9911C130.775 58.9956 130.742 58.9956 130.709 58.9911C130.633 58.9754 130.562 58.9405 130.503 58.8897C130.445 58.839 130.4 58.774 130.373 58.7011L128.275 53.092C128.246 53.0145 128.238 52.9306 128.253 52.8491C128.268 52.7677 128.304 52.6917 128.358 52.6292C128.412 52.5659 128.482 52.5184 128.561 52.4918C128.64 52.4651 128.724 52.4604 128.806 52.478L135.14 53.851C135.219 53.8684 135.292 53.9059 135.353 53.9599C135.413 54.014 135.459 54.0827 135.485 54.1595C135.508 54.2396 135.51 54.3245 135.489 54.4053C135.468 54.4861 135.427 54.5599 135.368 54.6192L131.135 58.8554C131.048 58.9416 130.93 58.9903 130.808 58.9911ZM129.438 53.5517L130.981 57.6922L134.103 54.5637L129.438 53.5517Z" fill="black"/>
<path d="M51.6822 21.6126C51.6821 21.5738 51.6758 21.5353 51.6637 21.4984C51.6642 21.4882 51.6642 21.4779 51.6637 21.4676C51.6516 21.4409 51.6361 21.416 51.6174 21.3935V21.375H51.602L51.5834 21.3534L50.7905 20.7117C50.757 20.684 50.7182 20.6633 50.6766 20.6506C50.635 20.6379 50.5913 20.6336 50.548 20.6379C50.5047 20.6422 50.4626 20.6551 50.4243 20.6757C50.386 20.6963 50.3521 20.7242 50.3246 20.758C50.2969 20.7918 50.2761 20.8308 50.2634 20.8726C50.2507 20.9145 50.2464 20.9585 50.2507 21.002C50.255 21.0456 50.2678 21.0879 50.2884 21.1264C50.3091 21.165 50.3371 21.1992 50.3709 21.2269L50.4388 21.2794H49.3589V15.6487C49.6118 15.5764 49.8344 15.4239 49.993 15.2141C50.1516 15.0042 50.2377 14.7485 50.2383 14.4855C50.2385 14.4004 50.2292 14.3156 50.2105 14.2325C50.6923 13.9294 51.154 13.5955 51.5927 13.2329C51.6588 13.1747 51.6991 13.0927 51.7049 13.0048C51.7107 12.9169 51.6814 12.8303 51.6236 12.7639C51.5952 12.7309 51.5606 12.704 51.5217 12.6845C51.4828 12.6651 51.4405 12.6536 51.3971 12.6507C51.3537 12.6478 51.3102 12.6536 51.2691 12.6678C51.228 12.6819 51.1901 12.7041 51.1577 12.7331C50.7555 13.066 50.3341 13.375 49.8958 13.6587C49.7471 13.5104 49.5619 13.404 49.3589 13.3501V7.1425C49.3589 7.05466 49.3243 6.97036 49.2624 6.90796C49.2006 6.84555 49.1167 6.81009 49.0288 6.80928C48.9404 6.80928 48.8557 6.84437 48.7932 6.90686C48.7307 6.96935 48.6956 7.05413 48.6956 7.1425V13.3501C48.4427 13.4224 48.2202 13.575 48.0616 13.7848C47.903 13.9946 47.8169 14.2503 47.8163 14.5133C47.8164 14.6172 47.8288 14.7208 47.8533 14.8218C46.071 15.6585 44.1599 16.1874 42.201 16.3861C39.9919 16.6236 38.4493 16.5805 36.7956 16.238C36.7877 15.979 36.6985 15.7291 36.5407 15.5237C36.3829 15.3183 36.1644 15.1677 35.9163 15.0933V7.10546C35.9163 7.01762 35.8816 6.93334 35.8197 6.87093C35.7579 6.80853 35.674 6.77307 35.5861 6.77226C35.4978 6.77226 35.413 6.80735 35.3505 6.86984C35.288 6.93233 35.2529 7.01708 35.2529 7.10546V15.0933C34.9564 15.1786 34.7036 15.3739 34.5464 15.6394C33.072 15.1337 31.6295 14.5392 30.2269 13.8592L29.1594 13.3717L29.107 13.3501C28.7337 13.1804 28.5331 13.091 28.24 12.9737C28.2415 12.9491 28.2415 12.9243 28.24 12.8997C28.2401 12.6369 28.1547 12.3813 27.9966 12.1714C27.8385 11.9616 27.6163 11.8089 27.3638 11.7365V7.10855C27.363 7.02042 27.3276 6.93613 27.2653 6.87382C27.203 6.8115 27.1187 6.77615 27.0306 6.77535C26.9422 6.77535 26.8574 6.81044 26.795 6.87293C26.7325 6.93542 26.6974 7.02017 26.6974 7.10855V11.7365C26.442 11.8098 26.2176 11.9648 26.0587 12.1777C23.8064 11.4372 22.4427 11.3601 21.8226 11.3817V8.16374C21.8829 8.21736 21.9609 8.24698 22.0416 8.24703C22.1089 8.24711 22.1745 8.22666 22.2298 8.1884C22.3026 8.13844 22.3526 8.06164 22.3687 7.97488C22.3849 7.88811 22.366 7.79846 22.3162 7.72561L21.767 6.91726L21.7485 6.89875C21.7314 6.87697 21.7117 6.85729 21.6899 6.84013C21.6643 6.82265 21.6362 6.80913 21.6066 6.80002C21.5705 6.78929 21.5332 6.78307 21.4955 6.7815C21.4679 6.77712 21.4398 6.77712 21.4122 6.7815H21.3968C21.3727 6.78969 21.3499 6.80111 21.3289 6.81544C21.3051 6.83486 21.2843 6.85775 21.2672 6.88333L20.718 7.72561C20.6703 7.79972 20.654 7.8897 20.6725 7.97586C20.691 8.06201 20.7429 8.13732 20.8168 8.18532C20.8766 8.22394 20.9472 8.24239 21.0183 8.23795C21.0893 8.23351 21.1571 8.20642 21.2117 8.16065V21.5663C21.2117 21.6547 21.2468 21.7394 21.3093 21.8019C21.3718 21.8644 21.4565 21.8995 21.5449 21.8995H50.5776L50.4419 22.026C50.378 22.0864 50.3405 22.1695 50.3376 22.2573C50.3347 22.3452 50.3667 22.4306 50.4265 22.495C50.4577 22.5282 50.4955 22.5547 50.5374 22.5727C50.5794 22.5908 50.6246 22.6 50.6702 22.5999C50.7547 22.599 50.8359 22.5671 50.8985 22.5104L51.6482 21.8101C51.6482 21.8101 51.6482 21.8101 51.6482 21.7915C51.6671 21.7697 51.6837 21.7459 51.6976 21.7206C51.6993 21.7104 51.6993 21.6999 51.6976 21.6897C51.7067 21.6585 51.7129 21.6265 51.7161 21.5941L51.6822 21.6126ZM49.0041 13.9302C49.149 13.9302 49.2879 13.9877 49.3903 14.0901C49.4927 14.1925 49.5502 14.3314 49.5502 14.4763C49.5502 14.6211 49.4927 14.76 49.3903 14.8624C49.2879 14.9648 49.149 15.0224 49.0041 15.0224C48.8593 15.0224 48.7204 14.9648 48.618 14.8624C48.5156 14.76 48.458 14.6211 48.458 14.4763C48.458 14.3314 48.5156 14.1925 48.618 14.0901C48.7204 13.9877 48.8593 13.9302 49.0041 13.9302ZM42.2566 17.0494C44.3075 16.8217 46.3046 16.2457 48.1618 15.3463C48.3038 15.4892 48.4786 15.5951 48.6709 15.6549V21.2855H35.9008V17.4227C36.1963 17.3353 36.4483 17.1405 36.6074 16.8766C37.6313 17.0891 38.6748 17.1925 39.7204 17.1852C40.5676 17.1847 41.4142 17.1393 42.2566 17.0494ZM35.5707 15.7104C35.7153 15.7112 35.8537 15.769 35.956 15.8712C36.0582 15.9735 36.116 16.1119 36.1168 16.2565C36.1168 16.4013 36.0593 16.5402 35.9569 16.6426C35.8544 16.7451 35.7155 16.8026 35.5707 16.8026C35.4259 16.8026 35.287 16.7451 35.1845 16.6426C35.0821 16.5402 35.0246 16.4013 35.0246 16.2565C35.0246 16.1117 35.0821 15.9728 35.1845 15.8703C35.287 15.7679 35.4259 15.7104 35.5707 15.7104ZM28.8108 13.9548L28.8632 13.9795L29.9277 14.4639C31.3657 15.1611 32.8454 15.769 34.3582 16.2843C34.3673 16.5421 34.4571 16.7907 34.6148 16.9949C34.7725 17.1991 34.9903 17.3487 35.2375 17.4227V21.2701H27.3453V14.0628C27.6076 13.985 27.8366 13.8222 27.9963 13.6C28.2616 13.708 28.4498 13.7913 28.8108 13.9548ZM27.0121 12.3536C27.1569 12.3536 27.2958 12.4111 27.3982 12.5135C27.5006 12.6159 27.5581 12.7548 27.5581 12.8997C27.5573 13.0443 27.4995 13.1827 27.3973 13.2849C27.2951 13.3872 27.1566 13.445 27.0121 13.4458C26.8672 13.4458 26.7283 13.3882 26.6259 13.2858C26.5235 13.1834 26.466 13.0445 26.466 12.8997C26.466 12.7548 26.5235 12.6159 26.6259 12.5135C26.7283 12.4111 26.8672 12.3536 27.0121 12.3536ZM21.8041 12.045C22.3162 12.0234 23.5935 12.0759 25.815 12.8009C25.815 12.8318 25.815 12.8657 25.815 12.8997C25.8155 13.1627 25.9016 13.4184 26.0602 13.6282C26.2188 13.838 26.4414 13.9906 26.6943 14.0628V21.2701H21.8195L21.8041 12.045Z" fill="black"/>
<path d="M140.931 3.8147e-06H3.25193C2.38972 0.00082069 1.56304 0.343697 0.953369 0.953373C0.343693 1.56305 0.000816875 2.3897 0 3.25191V96.1197C0.000816875 96.9819 0.343693 97.8086 0.953369 98.4183C1.56304 99.028 2.38972 99.3708 3.25193 99.3716H61.086V103.691C61.086 110.238 54.431 110.938 54.1472 110.966H54.1225C53.7157 110.982 53.3308 111.155 53.0484 111.448C52.7661 111.741 52.6081 112.133 52.6076 112.54V118.402C52.6076 118.821 52.7739 119.223 53.0701 119.52C53.3663 119.817 53.768 119.984 54.1873 119.985H89.9769C90.3961 119.984 90.7979 119.817 91.0941 119.52C91.3902 119.223 91.5565 118.821 91.5565 118.402V112.54C91.5555 112.211 91.4517 111.89 91.2598 111.623C91.0679 111.356 90.7973 111.156 90.4859 111.05C90.4184 110.999 90.3384 110.968 90.2545 110.96C89.9707 110.935 83.3126 110.25 83.3126 103.685V99.3655H140.931C141.793 99.3646 142.62 99.0218 143.229 98.4121C143.839 97.8024 144.182 96.9758 144.183 96.1135V3.24575C144.18 2.38461 143.837 1.55953 143.227 0.951188C142.618 0.342846 141.792 0.000816585 140.931 3.8147e-06ZM90.6402 112.564V118.427C90.6402 118.6 90.5714 118.767 90.4488 118.89C90.3262 119.013 90.1599 119.083 89.9861 119.084H54.1965C54.0228 119.083 53.8564 119.013 53.7338 118.89C53.6113 118.767 53.5425 118.6 53.5425 118.427V112.564C53.5425 112.391 53.6113 112.224 53.7338 112.101C53.8564 111.978 54.0228 111.908 54.1965 111.907H89.9861C90.1599 111.908 90.3262 111.978 90.4488 112.101C90.5714 112.224 90.6402 112.391 90.6402 112.564ZM87.0335 110.982H57.3744C59.5341 109.976 62.0024 107.896 62.0024 103.71V99.3901H82.4179V103.58L82.3901 103.716C82.3994 107.906 84.8769 109.976 87.0366 110.982H87.0335ZM143.248 96.1321C143.247 96.7488 143.002 97.34 142.566 97.7761C142.129 98.2122 141.538 98.4576 140.921 98.4584H3.25193C2.6352 98.4576 2.04396 98.2122 1.60787 97.7761C1.17177 97.34 0.926409 96.7488 0.925593 96.1321V86.1943H143.251L143.248 96.1321ZM143.248 85.2749H0.922523V3.25191C0.923339 2.63518 1.16869 2.04395 1.60478 1.60785C2.04087 1.17176 2.63211 0.926413 3.24884 0.925596H140.931C141.547 0.926413 142.139 1.17176 142.575 1.60785C143.011 2.04395 143.256 2.63518 143.257 3.25191L143.248 85.2749Z" fill="black"/>
<path d="M126.325 72.0327V85.4785C126.325 86.1331 126.065 86.7609 125.602 87.2238C125.139 87.6867 124.511 87.9467 123.857 87.9467H101.821C101.167 87.9467 100.539 87.6867 100.076 87.2238C99.6131 86.7609 99.353 86.1331 99.353 85.4785V72.0327H126.325ZM122.41 83.1398V80.6407C122.41 80.518 122.361 80.4003 122.274 80.3135C122.187 80.2267 122.069 80.1779 121.947 80.1779H116.291C116.169 80.1779 116.051 80.2267 115.964 80.3135C115.877 80.4003 115.829 80.518 115.829 80.6407V83.1429C115.829 83.2656 115.877 83.3834 115.964 83.4701C116.051 83.5569 116.169 83.6057 116.291 83.6057H121.947C122.009 83.607 122.072 83.5955 122.13 83.5721C122.188 83.5486 122.24 83.5136 122.284 83.4692C122.329 83.4248 122.363 83.3718 122.386 83.3136C122.409 83.2554 122.42 83.1932 122.419 83.1306L122.41 83.1398ZM122.41 77.9102V75.3957C122.41 75.273 122.361 75.1552 122.274 75.0684C122.187 74.9817 122.069 74.9329 121.947 74.9329H116.291C116.169 74.9329 116.051 74.9817 115.964 75.0684C115.877 75.1552 115.829 75.273 115.829 75.3957V77.8979C115.829 78.0206 115.877 78.1383 115.964 78.2251C116.051 78.3119 116.169 78.3607 116.291 78.3607H121.947C122.008 78.3619 122.069 78.3509 122.126 78.3284C122.183 78.3059 122.235 78.2723 122.279 78.2295C122.323 78.1867 122.358 78.1357 122.382 78.0793C122.406 78.0229 122.418 77.9623 122.419 77.901L122.41 77.9102ZM108.643 83.1398V80.6407C108.643 80.518 108.594 80.4003 108.507 80.3135C108.421 80.2267 108.303 80.1779 108.18 80.1779H102.525C102.463 80.1771 102.403 80.1885 102.346 80.2114C102.289 80.2343 102.237 80.2682 102.193 80.3113C102.15 80.3543 102.115 80.4056 102.092 80.4622C102.068 80.5187 102.056 80.5794 102.056 80.6407V83.1429C102.056 83.2656 102.105 83.3834 102.191 83.4701C102.278 83.5569 102.396 83.6057 102.519 83.6057H108.174C108.236 83.6065 108.298 83.5948 108.356 83.5711C108.414 83.5475 108.466 83.5124 108.51 83.468C108.553 83.4237 108.588 83.3709 108.611 83.3129C108.634 83.2549 108.645 83.1929 108.643 83.1306V83.1398ZM108.643 77.9102V75.3957C108.643 75.273 108.594 75.1552 108.507 75.0684C108.421 74.9817 108.303 74.9329 108.18 74.9329H102.525C102.463 74.9321 102.403 74.9434 102.346 74.9663C102.289 74.9892 102.237 75.0232 102.193 75.0662C102.15 75.1093 102.115 75.1606 102.092 75.2172C102.068 75.2737 102.056 75.3344 102.056 75.3957V77.8979C102.056 78.0206 102.105 78.1383 102.191 78.2251C102.278 78.3119 102.396 78.3607 102.519 78.3607H108.174C108.235 78.3615 108.296 78.3502 108.352 78.3275C108.409 78.3048 108.46 78.2711 108.504 78.2284C108.548 78.1857 108.582 78.1348 108.606 78.0786C108.63 78.0224 108.642 77.962 108.643 77.901V77.9102Z" fill="#FFFDF7"/>
<path d="M118.254 68.4908C118.254 68.2919 118.175 68.1012 118.034 67.9606C117.893 67.82 117.703 67.741 117.504 67.741C117.305 67.741 117.114 67.82 116.974 67.9606C116.833 68.1012 116.754 68.2919 116.754 68.4908C116.754 68.5895 116.773 68.6873 116.81 68.7786C116.848 68.8699 116.903 68.953 116.973 69.0229C117.042 69.0928 117.125 69.1484 117.216 69.1862C117.307 69.2241 117.405 69.2436 117.504 69.2436C117.603 69.2436 117.7 69.2241 117.792 69.1862C117.883 69.1484 117.966 69.0928 118.035 69.0229C118.105 68.953 118.16 68.8699 118.197 68.7786C118.235 68.6873 118.254 68.5895 118.254 68.4908ZM117.504 66.8154C117.948 66.8163 118.374 66.993 118.688 67.307C119.002 67.621 119.178 68.0467 119.179 68.4908C119.179 68.9354 119.003 69.3618 118.689 69.6765C118.375 69.9912 117.949 70.1684 117.504 70.1692C117.059 70.1684 116.633 69.9912 116.319 69.6765C116.005 69.3618 115.829 68.9354 115.829 68.4908C115.829 68.0467 116.006 67.621 116.32 67.307C116.634 66.993 117.06 66.8163 117.504 66.8154Z" fill="black"/>
<path d="M116.754 82.6678H121.493V81.0912H116.764L116.754 82.6678ZM116.292 80.1656H121.947C122.01 80.1643 122.072 80.1757 122.13 80.1992C122.188 80.2227 122.241 80.2577 122.285 80.3021C122.329 80.3465 122.363 80.3994 122.387 80.4576C122.41 80.5158 122.421 80.5781 122.419 80.6407V83.1429C122.419 83.2656 122.37 83.3834 122.283 83.4701C122.197 83.5569 122.079 83.6057 121.956 83.6057H116.301C116.178 83.6057 116.06 83.5569 115.974 83.4701C115.887 83.3834 115.838 83.2656 115.838 83.1429V80.6407C115.836 80.5797 115.847 80.5189 115.869 80.462C115.891 80.405 115.924 80.3529 115.966 80.3087C116.008 80.2646 116.059 80.2292 116.114 80.2046C116.17 80.18 116.231 80.1668 116.292 80.1656Z" fill="black"/>
<path d="M116.291 74.936H121.947C122.008 74.9348 122.069 74.9457 122.126 74.9682C122.183 74.9907 122.235 75.0244 122.279 75.0671C122.323 75.1099 122.358 75.161 122.382 75.2174C122.406 75.2738 122.418 75.3344 122.419 75.3957V77.8979C122.419 78.0206 122.37 78.1383 122.283 78.2251C122.197 78.3119 122.079 78.3607 121.956 78.3607H116.301C116.178 78.3607 116.06 78.3119 115.973 78.2251C115.887 78.1383 115.838 78.0206 115.838 77.8979V75.3957C115.839 75.2751 115.887 75.1595 115.971 75.0737C116.056 74.9878 116.171 74.9384 116.291 74.936ZM116.754 77.4382H121.493V75.8616H116.763L116.754 77.4382Z" fill="black"/>
<path d="M109.859 68.4908C109.858 68.9357 109.681 69.3621 109.366 69.6767C109.052 69.9913 108.625 70.1684 108.18 70.1692C107.736 70.1684 107.309 69.9912 106.995 69.6765C106.681 69.3618 106.505 68.9354 106.505 68.4908C106.506 68.0467 106.682 67.621 106.996 67.307C107.31 66.993 107.736 66.8163 108.18 66.8154C108.625 66.8154 109.051 66.9919 109.366 67.306C109.681 67.62 109.858 68.0462 109.859 68.4908ZM108.18 69.2436C108.38 69.2436 108.571 69.1643 108.713 69.0231C108.854 68.8819 108.933 68.6904 108.933 68.4908C108.933 68.392 108.914 68.2943 108.876 68.2031C108.838 68.112 108.782 68.0292 108.712 67.9595C108.642 67.8899 108.559 67.8347 108.468 67.7972C108.377 67.7597 108.279 67.7406 108.18 67.741C107.982 67.7418 107.791 67.8211 107.651 67.9615C107.511 68.1019 107.431 68.2922 107.43 68.4908C107.43 68.6899 107.509 68.8809 107.65 69.022C107.79 69.1631 107.981 69.2428 108.18 69.2436Z" fill="black"/>
<path d="M102.981 82.6678H107.711V81.0912H102.981V82.6678ZM102.519 80.1656H108.174C108.297 80.1656 108.414 80.2143 108.501 80.3011C108.588 80.3879 108.637 80.5056 108.637 80.6284V83.1306C108.637 83.2533 108.588 83.371 108.501 83.4578C108.414 83.5446 108.297 83.5934 108.174 83.5934H102.519C102.396 83.5934 102.278 83.5446 102.191 83.4578C102.105 83.371 102.056 83.2533 102.056 83.1306V80.6407C102.054 80.5784 102.065 80.5164 102.088 80.4584C102.111 80.4004 102.145 80.3476 102.189 80.3032C102.233 80.2589 102.285 80.2238 102.343 80.2001C102.401 80.1765 102.462 80.1647 102.525 80.1656H102.519Z" fill="black"/>
<path d="M102.981 77.4382H107.711V75.8616H102.981V77.4382ZM102.518 74.936H108.174C108.297 74.936 108.414 74.9847 108.501 75.0715C108.588 75.1583 108.637 75.276 108.637 75.3988V77.901C108.637 78.0237 108.588 78.1414 108.501 78.2282C108.414 78.315 108.297 78.3638 108.174 78.3638H102.518C102.396 78.3638 102.278 78.315 102.191 78.2282C102.104 78.1414 102.056 78.0237 102.056 77.901V75.3957C102.056 75.3347 102.069 75.2743 102.092 75.2181C102.116 75.1619 102.151 75.111 102.194 75.0682C102.238 75.0255 102.29 74.9918 102.346 74.9691C102.403 74.9464 102.464 74.9352 102.525 74.936H102.518Z" fill="black"/>
<path d="M101.825 65.9824C101.17 65.9824 100.542 66.2425 100.079 66.7053C99.6165 67.1682 99.3564 67.796 99.3564 68.4507V71.1102H126.322V68.4507C126.322 67.796 126.062 67.1682 125.599 66.7053C125.136 66.2425 124.508 65.9824 123.854 65.9824H101.825ZM99.3564 85.4785C99.3564 86.1331 99.6165 86.7609 100.079 87.2238C100.542 87.6867 101.17 87.9467 101.825 87.9467H123.86C124.515 87.9467 125.142 87.6867 125.605 87.2238C126.068 86.7609 126.328 86.1331 126.328 85.4785V72.0327H99.3626L99.3564 85.4785ZM123.857 88.8723H101.822C100.921 88.8723 100.058 88.5147 99.4218 87.8783C98.7853 87.2418 98.4277 86.3786 98.4277 85.4785V68.4476C98.4277 67.5475 98.7853 66.6842 99.4218 66.0478C100.058 65.4113 100.921 65.0537 101.822 65.0537H123.857C124.757 65.0537 125.62 65.4113 126.257 66.0478C126.893 66.6842 127.251 67.5475 127.251 68.4476V85.4785C127.25 86.3775 126.892 87.2395 126.257 87.8752C125.621 88.5109 124.759 88.8684 123.86 88.8692L123.857 88.8723Z" fill="black"/>
</g>
<defs>
<clipPath id="clip0_54_450">
<rect width="144.176" height="120" fill="white"/>
</clipPath>
</defs>
</svg>
