<svg width="1779" height="1764" xmlns="http://www.w3.org/2000/svg" xmlns:xlink="http://www.w3.org/1999/xlink" xml:space="preserve" overflow="hidden"><g transform="translate(-1311 -355)"><path d="M2685.08 859.111C2490.05 1057.58 2114.77 1101.34 1846.87 956.86 1796.9 929.91 1752.85 897.4 1716.28 860.483L1771.75 830.328C1952.48 998.608 2290.72 1030.79 2527.24 902.198 2565.8 881.235 2600.2 856.663 2629.52 829.148Z" fill="#262626" fill-rule="evenodd"/><path d="M1689 834C1689 808.042 1710.04 787 1736 787 1761.96 787 1783 808.042 1783 834 1783 859.957 1761.96 881 1736 881 1710.04 881 1689 859.957 1689 834Z" fill="#262626" fill-rule="evenodd"/><path d="M2616 834C2616 808.042 2637.04 787 2663 787 2688.96 787 2710 808.042 2710 834 2710 859.957 2688.96 881 2663 881 2637.04 881 2616 859.957 2616 834Z" fill="#262626" fill-rule="evenodd"/><path d="M1363 1237.5C1363 774.962 1737.74 400 2200 400 2662.26 400 3037 774.962 3037 1237.5 3037 1700.04 2662.26 2075 2200 2075 1737.74 2075 1363 1700.04 1363 1237.5ZM1423.83 1237.5C1423.83 1666.44 1771.33 2014.17 2200 2014.17 2628.67 2014.17 2976.17 1666.44 2976.17 1237.5 2976.17 808.558 2628.67 460.832 2200 460.832 1771.33 460.832 1423.83 808.558 1423.83 1237.5Z" fill="#262626" fill-rule="evenodd"/><path d="M1675 1237.5C1675 947.827 1910.05 713 2200 713 2489.95 713 2725 947.827 2725 1237.5 2725 1527.17 2489.95 1762 2200 1762 1910.05 1762 1675 1527.17 1675 1237.5ZM1734.44 1237.5C1734.44 1494.35 1942.88 1702.56 2200 1702.56 2457.12 1702.56 2665.56 1494.35 2665.56 1237.5 2665.56 980.653 2457.12 772.437 2200 772.437 1942.88 772.437 1734.44 980.653 1734.44 1237.5Z" fill="#262626" fill-rule="evenodd"/><rect x="2161" y="435" width="77.9998" height="1605" fill="#262626"/><rect x="1372" y="1201" width="1656" height="72.9999" fill="#262626"/><path d="M1860 633.5C1860 589.593 1895.59 554 1939.5 554 1983.41 554 2019 589.593 2019 633.5 2019 677.407 1983.41 713 1939.5 713 1895.59 713 1860 677.407 1860 633.5Z" fill="#262626" fill-rule="evenodd"/><path d="M2105 1237.5C2105 1185.31 2147.53 1143 2200 1143 2252.47 1143 2295 1185.31 2295 1237.5 2295 1289.69 2252.47 1332 2200 1332 2147.53 1332 2105 1289.69 2105 1237.5Z" fill="#262626" fill-rule="evenodd"/><path d="M1539 1064C1539 1049.09 1551.09 1037 1566 1037 1580.91 1037 1593 1049.09 1593 1064 1593 1078.91 1580.91 1091 1566 1091 1551.09 1091 1539 1078.91 1539 1064Z" fill="#262626" fill-rule="evenodd"/><path d="M1621 1564.5C1621 1552.07 1631.07 1542 1643.5 1542 1655.93 1542 1666 1552.07 1666 1564.5 1666 1576.93 1655.93 1587 1643.5 1587 1631.07 1587 1621 1576.93 1621 1564.5Z" fill="#262626" fill-rule="evenodd"/><path d="M2466 1820.5C2466 1797.03 2485.25 1778 2509 1778 2532.75 1778 2552 1797.03 2552 1820.5 2552 1843.97 2532.75 1863 2509 1863 2485.25 1863 2466 1843.97 2466 1820.5Z" fill="#262626" fill-rule="evenodd"/><path d="M1311 1237.5C1311 1203.53 1338.31 1176 1372 1176 1405.69 1176 1433 1203.53 1433 1237.5 1433 1271.47 1405.69 1299 1372 1299 1338.31 1299 1311 1271.47 1311 1237.5Z" fill="#262626" fill-rule="evenodd"/><path d="M2808 1046.5C2808 1030.21 2821.21 1017 2837.5 1017 2853.79 1017 2867 1030.21 2867 1046.5 2867 1062.79 2853.79 1076 2837.5 1076 2821.21 1076 2808 1062.79 2808 1046.5Z" fill="#262626" fill-rule="evenodd"/><path d="M2968 1237C2968 1203.31 2995.31 1176 3029 1176 3062.69 1176 3090 1203.31 3090 1237 3090 1270.69 3062.69 1298 3029 1298 2995.31 1298 2968 1270.69 2968 1237Z" fill="#262626" fill-rule="evenodd"/><path d="M1714.92 1615.89C1909.95 1417.42 2285.23 1373.66 2553.13 1518.14 2603.1 1545.09 2647.15 1577.6 2683.72 1614.52L2628.25 1644.67C2447.52 1476.39 2109.28 1444.21 1872.76 1572.8 1834.2 1593.76 1799.8 1618.34 1770.48 1645.85Z" fill="#262626" fill-rule="evenodd"/><path d="M2710 1641C2710 1666.96 2688.96 1688 2663 1688 2637.04 1688 2616 1666.96 2616 1641 2616 1615.04 2637.04 1594 2663 1594 2688.96 1594 2710 1615.04 2710 1641Z" fill="#262626" fill-rule="evenodd"/><path d="M1783 1641C1783 1666.96 1761.96 1688 1736 1688 1710.04 1688 1689 1666.96 1689 1641 1689 1615.04 1710.04 1594 1736 1594 1761.96 1594 1783 1615.04 1783 1641Z" fill="#262626" fill-rule="evenodd"/><path d="M2138 416C2138 382.311 2165.53 355 2199.5 355 2233.47 355 2261 382.311 2261 416 2261 449.689 2233.47 477 2199.5 477 2165.53 477 2138 449.689 2138 416Z" fill="#262626" fill-rule="evenodd"/><path d="M2138 2058C2138 2024.31 2165.53 1997 2199.5 1997 2233.47 1997 2261 2024.31 2261 2058 2261 2091.69 2233.47 2119 2199.5 2119 2165.53 2119 2138 2091.69 2138 2058Z" fill="#262626" fill-rule="evenodd"/><path d="M2846 435.5C2846 401.535 2873.31 374 2907 374 2940.69 374 2968 401.535 2968 435.5 2968 469.466 2940.69 497 2907 497 2873.31 497 2846 469.466 2846 435.5Z" fill="#262626" fill-rule="evenodd"/></g></svg>