<svg width="660" height="686" viewBox="0 0 660 686" fill="none" xmlns="http://www.w3.org/2000/svg">
<path d="M659.989 339.757C659.169 318.273 640.346 306.633 627.129 293.361C636.283 258.887 593.59 239.785 574.21 267.622C563.326 265.868 549.34 258.695 537.003 256.124C529.919 255.374 542.822 242.604 544.052 238.558C620.753 114.47 579.204 54.4459 447.732 118.591C440.258 120.558 420.666 136.142 419.998 130.525C412.914 99.7275 405.657 69.7256 390.588 41.6401C350.376 -32.376 304.845 4.06425 278.76 59.7233C251.88 114.809 260.584 133.461 247.26 122.378C211.192 99.6717 173.802 78.5771 130.604 77.5024C107.834 50.6335 69.8827 71.3682 79.7246 102.475C82.6494 114.287 92.7291 113.294 92.132 122.911C92.8101 165.693 113 203.36 132.385 240.312C-29.9941 273.204 -49.5059 351.529 110.161 402.032C114.973 405.074 131.181 403.487 122.938 412.349C112.944 424.947 108.77 441.342 98.4015 450.999C64.9693 444.637 50.7655 485.351 77.4071 502.79C82.194 505.918 46.176 631.71 238.218 529.761C244.047 527.637 246.405 602.879 290.904 649.58C287.503 698.375 355.066 697.853 348.468 649.748C378.419 619.837 393.194 578.368 404.782 538.338C406.123 531.241 416.855 543.565 421.121 544.756C559.865 630.372 605.229 567.392 535.141 435.608C525.329 415.239 522.865 424.587 550.215 416.344C591.379 406.478 661.386 382.443 659.989 339.757ZM600.877 260.281C630.383 263.638 629.659 306.09 599.445 305.599C566.286 302.455 571.3 257.564 600.877 260.281ZM428.919 134.946C592.361 45.6045 612.945 132.568 526.458 253.067C397.875 219.35 445.192 266.806 424.658 156.745C424.177 148.309 417.402 138.13 428.919 134.946ZM423.064 378.241C404.423 395.508 386.667 415.664 365.51 430.169C338.651 430.295 312.465 430.072 285.834 426.706C271.397 413.931 258.959 398.904 245.707 384.796C240.758 377.83 232.723 373.714 231.032 365.024C232.044 339.053 230.02 310.927 235.425 285.538C254.289 266.421 272.667 248.094 293.834 232.013C318.203 230.837 342.603 232.997 371.097 234.371C380.397 237.413 386.398 248.566 394.206 255.273C406.452 269.974 424.83 284.585 429.121 296.99C427.962 329.953 429.754 372.309 423.064 378.241ZM425.134 385.815C420.478 443.192 427.38 426.64 380.605 430.133C369.594 431.816 394.515 415.157 395.441 412.684C406.072 404.167 414.28 392.598 425.134 385.815ZM358.507 436.668C315.951 473.605 331.901 468.652 294.972 436.161C288.733 430.98 314.53 435.928 317.004 435.106C331.415 436.313 344.329 435.106 358.507 436.668ZM275.89 425.408C263.569 427.472 247.351 423.061 233.765 421.925C229.509 409.251 232.105 392.638 231.301 377.242C246.309 394.408 260.918 410.118 275.89 425.408ZM226.058 420.577C210.402 420.07 146.296 407.472 136.813 403.082C139.986 394.681 184.262 338.83 192.894 331.246C194.615 331.753 192.591 330.739 222.167 366.489C224.191 368.928 225.365 371.29 225.279 374.601C224.748 394.879 227.258 417.667 226.058 420.577ZM225.239 359.742C221.251 357.111 204.492 336.929 197.13 325.887C206.405 315.505 216.652 304.255 226.433 294.527C228.507 313.512 223.867 338.683 225.239 359.757V359.742ZM193.415 321.177C177.982 302.242 146.579 255.146 142.612 245.133C152.732 241.341 217.547 233.306 232.723 233.98C228.29 295.652 234.21 276.504 193.415 321.193V321.177ZM234.762 276.494C236.578 263.06 236.421 245.017 240.1 233.605C249.841 232.257 272.283 231.577 280.677 232.242C281.725 232.52 284.245 231.887 280.677 234.715C264.475 248.079 250.823 263.967 234.762 276.509V276.494ZM301.434 225.393C304.47 221.519 325.915 203.847 334.922 197.854C342.092 203.614 358.598 219.111 364.65 225.651C371.228 230.771 353.837 226.665 348.068 227.136C332.594 225.899 316.705 226.736 301.434 225.408V225.393ZM384.627 235.841C398.158 236.348 412.595 237.99 426.819 240.15C430.042 252.074 428.023 267.176 428.954 280.469C429.278 288.691 416.997 270.01 414.452 268.54C404.888 256.966 392.916 247.293 384.627 235.856V235.841ZM427.709 419.441C429.819 406.357 429.986 392.065 432.137 378.672C441.665 364.233 456.127 354.393 466.354 340.244C484.955 364.391 502.28 389.303 517.562 416.288C511.212 421.261 496.593 419.923 487.591 422.371C424.334 428.992 425.852 432.536 427.709 419.456V419.441ZM432.663 367.442C434.09 345.694 434.88 324.564 435.006 302.014C439.56 305.71 459.33 330.14 462.791 336.219C453.177 346.115 443.856 358.824 432.663 367.442ZM466.632 330.723C429.87 284.149 435.112 300.438 434.51 262.471C435.775 255.957 430.508 241.433 435.674 241.331C463.176 244.692 489.994 250.193 516.919 256.718C531.012 257.422 515.401 268.717 512.547 275.004C497.438 294.486 484.135 314.009 466.632 330.698V330.723ZM425.847 233.894C352.981 226.837 387.836 233.575 340.969 195.173C336.991 191.411 407.965 146.292 416.284 142.773C417.129 147.295 428.155 212.962 425.852 233.854L425.847 233.894ZM260.508 126.51C272.212 84.6606 300.483 5.20998 342.608 6.14786C389.667 6.75114 422.659 142.697 411.056 138.464C299.653 203.664 366.335 204.202 273.543 140.37C269.206 135.874 257.305 132.786 260.508 126.51ZM257.067 139.083C256.561 129.45 330.671 193.246 329.189 193.135C324.032 201.084 303.701 213.54 293.358 223.816C277.545 228.956 257.598 225.022 240.267 227.192C244.153 197.52 249.763 168.101 257.067 139.083ZM84.3344 97.1673C79.9625 65.5837 123.07 62.5775 129.44 89.5629C134.753 122.728 89.6981 124.923 84.3344 97.1673ZM97.9562 121.187C123.404 127.271 140.512 108.402 134.581 84.2348C160.054 82.9877 185.304 95.0685 208.09 106.171C270.107 140.816 250.028 113.573 235.187 221.646C234.494 223.958 235.667 226.883 232.272 227.77C184.58 229.377 139.48 241.788 137.618 237.402C118.581 203.862 97.9562 159.787 97.9562 121.187ZM60.5113 376.456C-66.351 311.322 56.8174 260.094 132.087 246.553C137.936 243.329 144.848 263.622 148.33 266.715C184.085 325.77 195.389 321.395 183.695 332.396C162.994 355.007 147.768 378.783 129.076 401.419C105.44 395.695 82.4925 386.854 60.4708 376.456H60.5113ZM69.2906 477.792C71.7752 445.626 115.889 452.51 115.55 480.17C113.137 512.078 69.1945 505.782 69.2502 477.792H69.2906ZM236.108 524.24C192.591 550.896 65.8801 604.568 86.0245 507.348C95.4464 507.591 104.975 507.672 112.292 500.382C124.896 489.341 124.168 468.444 110.774 457.478C101.468 452.743 110.151 447.532 112.798 440.404C142.364 398.752 102.996 407.066 226.205 427.147C228.735 430.265 227.313 437.154 228.275 442.128C229.327 482.345 242.018 524.438 236.067 524.24H236.108ZM234.797 428.115C299.228 433.398 279.858 431.963 315.086 462.898C317.232 465.59 322.403 467.242 317.414 470.335C311.569 474.74 244.644 524.123 243.45 516.894C241.451 506.106 229.013 428.622 234.757 428.115H234.797ZM317.338 679.927C285.965 673.778 292.994 631.467 322.079 635.061C351.423 638.828 349.48 683.278 317.297 679.927H317.338ZM399.55 535.991C387.805 574.327 375.145 615.077 345.609 644.009C331.855 625.104 310.805 625.186 298.828 637.038C296.106 638.002 295.509 644.785 292.543 642.666C267.182 618.549 253.074 563.316 245.818 529.309C244.103 523.322 246.582 527.236 292.447 495.566C347.096 464.728 296.085 458.431 393.756 526.597C397.364 529.522 401.984 530.43 399.509 535.991H399.55ZM403.051 523.16C399.469 527.54 378.383 506.659 374.244 505.122C355.081 488.788 327.924 471.192 331.466 466.908C342.755 457.783 354.894 447.861 366.482 438.326C370.464 434.736 377.219 436.526 383.18 436.059C395.137 437.58 423.302 430.158 419.33 439.035C415.508 467.368 410.06 495.456 403.011 523.16H403.051ZM412.306 532.23C405.91 529.629 408.537 524.676 410.019 518.653C430.214 440.703 418.621 433.276 433.26 433.656C489.225 431.421 521.367 418.914 523.047 425.322C609.575 580.573 541.846 621.556 412.266 532.23H412.306ZM651.038 355.21C628.48 394.337 562.157 407.158 531.462 414.848C521.296 416.268 528.062 420.425 504.988 384.603C473.235 335.828 468.904 337.613 472.218 334.49C493.891 310.699 511.748 284.377 530.916 260.565C544.391 264.469 561.079 267.871 571.513 274.486C566.053 304.463 598.018 322.338 619.635 304.235C621.861 303.125 622.256 298.912 625.768 300.732C642.77 312.579 661.72 333.324 650.997 355.21H651.038Z" fill="#262626"/>
<path d="M351.413 284.808C286.547 267.389 262.861 358.368 324.27 373.115C383.195 385.379 406.239 303.728 351.413 284.808ZM340.979 368.254C282.2 373.749 278.79 295.444 332.275 288.544C385.498 284.747 394.004 358.388 340.979 368.254Z" fill="#262626"/>
<path d="M354.803 348.756C354.803 348.756 354.864 348.792 354.92 348.67L354.803 348.756Z" fill="#262626"/>
<path d="M371.507 307.621C370.166 305.335 356.261 290.557 358.35 299.566C362.399 304.301 368.122 307.337 370.621 314.055C374.862 318.987 369.452 347.661 367.955 331.519C367.61 330.343 367.059 329.659 365.318 330.049C362.216 333.709 363.8 341.811 358.69 344.082C359.069 345.283 354.788 350.246 352.526 350.008C344.4 360.411 326.679 353.75 315.82 349.831C318.623 361.445 343.929 360.984 351.803 355.711C359.656 353.035 361.478 344.411 367.621 340.391C368.253 349.435 352.38 359.894 344.415 360.431C341.814 360.522 330.247 362.682 338.464 365.288C345.584 364.649 354.419 362.155 360.547 357.329C375.59 345.572 380.817 323.22 371.507 307.621Z" fill="#262626"/>
<path d="M356.074 347.489C356.115 347.418 356.166 347.438 355.967 347.382C355.967 347.382 356.074 347.703 356.13 347.433L356.074 347.489Z" fill="#262626"/>
<path d="M357.34 346.216C357.271 346.204 357.204 346.181 357.141 346.15C357.141 346.15 357.294 346.476 357.34 346.216Z" fill="#262626"/>
<path d="M358.684 344.082C358.629 343.975 358.684 344.082 358.497 343.762C358.396 343.874 358.376 343.833 358.684 344.082Z" fill="#262626"/>
<path d="M113.577 477.412C110.946 477.919 111.953 480.018 110.658 482.989C108.634 474.497 101.777 491.764 95.1938 489.701C85.9338 490.208 83.09 476.079 77.9186 480.925C76.9319 480.21 77.696 478.735 76.9066 476.297C72.3525 470.766 71.4214 488.54 79.8161 484.078C91.586 496.925 98.908 495.389 110.02 485.25C106.422 499.313 88.3323 498.638 80.8686 488.007C74.3917 490.618 85.023 496.96 88.5195 498.309C98.7916 504.387 119.983 492.012 113.577 477.412Z" fill="#262626"/>
<path d="M593.16 294.567C617.297 307.636 620.146 269.432 613.623 279.394C612.677 287.632 607.076 297.107 597.31 292.392C591.774 287.895 601.383 292.818 604.495 290.871C607.88 290.775 614.286 279.977 608.32 281.863C601.439 293.447 599.83 281.949 594.562 290.374C592.68 290.339 588.844 282.542 587.291 289.335C588.859 290.623 592.153 292.909 592.487 295.104C592.74 294.841 593.019 294.516 593.16 294.567Z" fill="#262626"/>
<path d="M592.488 295.089L592.325 295.247C592.325 295.247 592.325 295.247 592.325 295.328C592.417 295.237 592.381 295.298 592.488 295.089Z" fill="#262626"/>
<path d="M621.108 274.537C620.602 272.154 614.206 265.3 615.967 273.179C617.844 277.285 620.713 279.865 619.65 285.224C618.547 297.183 600.371 305.416 592.326 295.328C580.298 293.239 597.098 305.776 603.352 303.439C616.837 302.77 628.415 289.28 621.108 274.537Z" fill="#262626"/>
<path d="M123.763 81.8065C122.159 85.9737 126.45 91.0078 126.232 96.3917C125.524 108.64 109.094 117.253 99.2112 107.545C97.7944 106.708 95.5477 106.435 96.6811 109.76C117.645 132.502 142.713 88.7974 123.763 81.8065Z" fill="#262626"/>
<path d="M323.294 363.63C333.267 366.043 325.024 359.265 319.17 357.384C298.929 342.642 305.841 331.915 301.459 323.078C291.253 334.764 311.519 360.634 323.294 363.63Z" fill="#262626"/>
<path d="M339.324 652.86C339.223 675.263 321.745 677.489 306.656 666.908C300.756 673.681 327.463 680.429 333.07 674.254C340.802 672.389 347.117 651.456 339.324 652.86Z" fill="#262626"/>
<path d="M318.507 665.499C314.92 665.332 312.602 661.651 309.101 659.309C300.65 662.478 322.834 673.737 326.953 669.063C332.013 668.353 341.242 654.564 334.755 654.939C331.365 660.972 327.099 668.394 318.507 665.499Z" fill="#262626"/>
<path d="M103.391 106.805C112.813 112.052 126.162 102.921 123.004 91.5349C116.026 102.724 111.528 110.799 98.7155 98.7439C91.0798 95.9506 99.3328 106.069 103.391 106.805Z" fill="#262626"/>
<path d="M354.732 348.553C354.768 348.616 354.792 348.685 354.803 348.757C354.824 348.711 355.012 348.686 354.732 348.553Z" fill="#262626"/>
<path d="M352.451 349.851C352.375 349.897 352.308 349.917 352.522 350.009C352.481 349.958 352.522 350.009 352.451 349.851Z" fill="#262626"/>
<path d="M354.733 348.553C354.368 348.289 354.576 346.338 355.967 347.382C355.628 347.149 355.724 345.136 357.141 346.15C362.201 329.649 352.749 347.524 347.527 346.272C347.598 349.643 338.788 349.369 335.074 349.273C329.235 357.734 352.708 350.282 354.733 348.553Z" fill="#262626"/>
<path d="M347.537 344.883C349.52 344.736 352.091 338.176 347.689 339.92C346.459 339.879 344.572 343.509 342.532 342.206C343.347 341.263 346.236 336.082 341.267 338.257C338.383 339.529 340.063 340.989 340.645 343.433C338.257 348.589 343.266 346.799 347.193 345.729C347.087 345.456 347.142 345.177 347.537 344.883Z" fill="#262626"/>
<path d="M347.193 345.729C347.277 345.929 347.397 346.111 347.547 346.267C347.454 346.073 347.334 345.892 347.193 345.729Z" fill="#262626"/>
<path d="M97.987 479.871C96.6359 483.095 93.3671 482.213 89.8553 482.679C88.651 484.261 89.0407 485.848 92.3196 486.735C98.6802 489.777 110.855 470.963 99.1963 478.659C99.2469 479.521 98.8421 479.921 97.987 479.871Z" fill="#262626"/>
<path d="M96.7379 481.048C96.8041 480.946 96.7888 481.048 96.575 480.793C96.6106 480.743 96.575 481.216 96.7939 481.012L96.7379 481.048Z" fill="#262626"/>
<path d="M97.9875 479.871C97.9875 479.831 97.9875 479.805 97.9875 479.759H97.845C97.8857 479.749 97.7839 479.912 97.9875 479.871Z" fill="#262626"/>
<path d="M99.1972 478.655C99.1948 478.621 99.1948 478.587 99.1972 478.553L99.0241 478.497C99.0699 478.497 99.0139 478.645 99.1972 478.655Z" fill="#262626"/>
<path d="M358.755 310.663C363.178 311.611 363.912 328.265 367.864 321.142C370.191 317.177 356.959 299.556 358.755 310.663Z" fill="#262626"/>
<path d="M105.354 99.1496C109.403 103.753 122.098 92.9038 114.392 91.8291C113.112 92.9038 110.921 96.4475 108.542 96.3917C106.093 94.0749 101.939 96.1585 105.354 99.1496Z" fill="#262626"/>
<path d="M112.53 93.7251C112.53 93.6034 112.555 93.6896 112.236 93.5882C112.277 93.5476 112.307 93.8467 112.53 93.7251Z" fill="#262626"/>
<path d="M325.015 656.267C324.913 656.229 324.814 656.182 324.721 656.125C325.409 661.925 316.119 656.024 316.291 661.58C320.233 668.14 335.337 655.395 325.015 656.267Z" fill="#262626"/>
<path d="M324.488 655.994C324.569 656.034 324.645 656.08 324.721 656.125C324.65 656.039 324.579 655.958 324.529 655.882L324.488 655.994Z" fill="#262626"/>
<path d="M586.466 287.941C586.041 286.177 581.73 275.267 580.986 284.109C580.51 288.098 587.777 296.818 586.466 287.941Z" fill="#262626"/>
<path d="M301.976 654.224C298.884 655.238 300.68 664.982 305.093 664.135C305.007 662.128 305.492 655.431 301.976 654.224Z" fill="#262626"/>
<path d="M94.3233 104.909C94.9305 103.545 93.0937 93.3398 89.0203 96.5539C88.2208 99.4487 90.2449 104.635 94.3233 104.909Z" fill="#262626"/>
<path d="M96.9749 475.237C93.5239 476.682 87.3606 481.412 96.5751 480.814C96.2209 479.693 96.3423 479.648 97.8503 479.769C97.6782 478.756 97.7845 478.076 99.0293 478.517C98.7864 477.478 99.1355 473.874 96.9749 475.237Z" fill="#262626"/>
<path d="M359.221 320.909C363.304 321.923 359.519 312.453 356.518 312.797C355.896 315.048 356.847 319.281 359.221 320.909Z" fill="#262626"/>
<path d="M604.171 283.049C606.732 278.238 597.462 279.936 599.87 285.158C601.019 285.087 602.572 284.301 604.171 283.049Z" fill="#262626"/>
<path d="M112.236 93.5881C113.577 85.0104 101.61 95.6768 111.128 94.6933C110.9 93.725 111.27 93.36 112.236 93.5881Z" fill="#262626"/>
<path d="M111.342 94.9122C111.265 94.841 111.194 94.7646 111.128 94.6934C111.15 94.8016 111.177 94.9086 111.209 95.014C111.275 94.9885 111.245 95.0089 111.342 94.9122Z" fill="#262626"/>
<path d="M324.488 655.993C324.387 655.644 324.529 655.933 323.709 655.416C323.892 655.695 324.168 655.899 324.488 655.993Z" fill="#262626"/>
<path d="M323.228 655.71C323.285 655.626 323.361 655.556 323.448 655.505C323.536 655.454 323.633 655.424 323.734 655.416C322.196 648.014 314.024 661.134 323.228 655.71Z" fill="#262626"/>
</svg>
