<svg width="92" height="150" viewBox="0 0 92 150" fill="none" xmlns="http://www.w3.org/2000/svg">
<g clip-path="url(#clip0_54_399)">
<path d="M89.4561 6.96379C89.6362 6.6944 89.9155 6.50709 90.2331 6.44265C90.5507 6.3782 90.881 6.44184 91.1519 6.6197C91.2861 6.7082 91.4016 6.82235 91.4916 6.95559C91.5816 7.08884 91.6444 7.23855 91.6763 7.39614C91.7083 7.55372 91.7089 7.71607 91.6779 7.87385C91.647 8.03164 91.5852 8.18176 91.496 8.31558L80.0918 25.5858C79.9734 25.7699 79.8072 25.9182 79.6109 26.015C79.4146 26.1117 79.1956 26.1531 78.9776 26.1347C78.769 26.1188 78.5684 26.0482 78.3959 25.9299C78.1252 25.751 77.9362 25.4723 77.8702 25.1545C77.8042 24.8368 77.8665 24.5059 78.0436 24.234L89.4561 6.96379Z" fill="#3A3A3A"/>
<path d="M65.8201 1.73685C65.855 1.5792 65.9207 1.42998 66.0133 1.2977C66.1059 1.16543 66.2237 1.05271 66.3599 0.965969C66.4961 0.879232 66.648 0.820184 66.807 0.792201C66.966 0.764218 67.129 0.767848 67.2866 0.802883C67.6057 0.875257 67.8831 1.07105 68.0581 1.34741C68.2331 1.62378 68.2916 1.95822 68.2206 2.27757L63.6982 22.4316C63.6359 22.7205 63.4715 22.9772 63.2353 23.1547C62.9991 23.3323 62.7068 23.4188 62.412 23.3983H62.2317C62.0741 23.3634 61.9249 23.2978 61.7926 23.2052C61.6603 23.1126 61.5476 22.9948 61.4609 22.8586C61.3741 22.7224 61.3151 22.5705 61.2871 22.4115C61.2592 22.2524 61.2628 22.0895 61.2978 21.9318L65.8201 1.73685Z" fill="#3A3A3A"/>
<path d="M47.1325 21.8253C47.1425 21.9859 47.1203 22.1469 47.0674 22.2989C47.0145 22.4509 46.9319 22.5908 46.8244 22.7105C46.7169 22.8302 46.5866 22.9273 46.4411 22.9962C46.2957 23.0651 46.1381 23.1043 45.9773 23.1116H45.8135C45.5172 23.0883 45.2394 22.9584 45.0315 22.746C44.8237 22.5336 44.6998 22.2531 44.6829 21.9564L43.5441 1.29444C43.5262 0.969744 43.6377 0.651187 43.8542 0.40856C44.0707 0.165932 44.3747 0.0190169 44.6993 -1.58022e-06C44.8603 -0.00996285 45.0217 0.0120931 45.1741 0.0648914C45.3266 0.11769 45.467 0.200182 45.5874 0.307601C45.7077 0.41502 45.8057 0.545232 45.8754 0.690712C45.9451 0.836192 45.9854 0.994053 45.9937 1.15517L47.1325 21.8253Z" fill="#3A3A3A"/>
<path d="M63.3787 62.6167C61.5435 63.1083 60.1016 65.6808 58.9464 69.5723C61.8385 70.5391 64.6158 70.875 66.8442 69.6788C67.6715 69.2841 68.3118 68.5817 68.6287 67.7216C68.9455 66.8615 68.9137 65.9116 68.5401 65.0746C68.1699 64.073 67.4232 63.2555 66.4591 62.7964C65.495 62.3373 64.3897 62.2729 63.3787 62.6167ZM43.8556 53.3098C43.4858 53.9181 43.2524 54.5994 43.1718 55.3067C43.0912 56.014 43.1651 56.7303 43.3885 57.4062C44.1899 59.7072 45.6067 61.7445 47.4849 63.2967L47.6324 63.1657C52.2121 59.3724 53.6458 56.0708 51.9171 53.3344C51.5046 52.7709 50.9678 52.3101 50.3483 51.9875C49.7288 51.665 49.0434 51.4895 48.3451 51.4747H47.8536C47.088 51.4308 46.3233 51.5751 45.6263 51.895C44.9294 52.2149 44.3214 52.7007 43.8556 53.3098ZM24.1112 63.3951C25.3893 60.7324 28.7973 59.0038 32.8527 60.8553C33.7293 61.2568 35.6874 62.1498 37.5062 68.4663C40.2573 67.4686 42.9029 66.2007 45.404 64.6813C43.3762 62.8908 41.8631 60.5914 41.0209 58.0206C40.7133 57.0239 40.6207 55.9732 40.7492 54.938C40.8777 53.9028 41.2244 52.9067 41.7664 52.0154C42.4366 51.0311 43.3463 50.2334 44.4097 49.6973C45.4731 49.1613 46.6554 48.9046 47.8454 48.9513C49.0417 48.9005 50.2315 49.1516 51.3053 49.6813C52.3791 50.211 53.3023 51.0024 53.9899 51.9826C55.694 54.6616 56.2674 59.0611 49.4347 64.8288C50.5018 65.5894 51.6247 66.2686 52.7938 66.8606C54.0637 67.5078 55.3663 68.1468 56.6771 68.7039C58.201 63.7146 60.2082 60.9209 62.7316 60.2409C64.3278 59.7393 66.0553 59.8672 67.5603 60.5984C69.0652 61.3295 70.2335 62.6086 70.8258 64.1734C71.4199 65.5723 71.4584 67.1452 70.9332 68.5715C70.4081 69.9978 69.3589 71.1702 67.9994 71.8499C65.0828 73.4065 61.7156 73.0624 58.3402 71.9564C56.5214 79.8378 55.7022 91.5288 55.5383 102.597H53.0805C53.1297 98.853 53.2526 94.7239 53.4984 90.5866C53.9817 82.4431 54.8009 75.979 55.9971 71.129C54.5142 70.5063 53.056 69.8017 51.655 69.089C50.1255 68.3206 48.6717 67.4099 47.3129 66.369C44.4151 68.2058 41.3277 69.7248 38.1043 70.8996C39.1366 75.3318 40.0869 81.7958 40.7096 91.2502C41.0291 96.1085 41.2175 100.918 41.3076 105.071L38.8498 105.12C38.5631 93.1509 37.6291 80.018 35.7448 71.6369C32.6397 72.4562 29.633 72.7183 27.5521 71.6369C23.4803 69.5641 22.8987 65.9184 24.1112 63.3951ZM26.3314 64.4519C25.6022 65.9758 26.0528 68.1059 28.7073 69.4249C30.1656 70.1704 32.566 69.941 35.2122 69.2037C34.2865 65.9266 33.164 63.7064 31.8204 63.0919C31.2068 62.7935 30.5426 62.6129 29.8624 62.5594C29.1506 62.4729 28.4295 62.6082 27.7975 62.9469C27.1655 63.2857 26.6535 63.8113 26.3314 64.4519Z" fill="#3A3A3A"/>
<path d="M31.8122 23.554C31.865 23.7073 31.8869 23.8695 31.8767 24.0313C31.8665 24.1931 31.8245 24.3512 31.7529 24.4967C31.6813 24.6421 31.5817 24.772 31.4597 24.8788C31.3377 24.9855 31.1958 25.0671 31.0421 25.1188C30.8845 25.174 30.7167 25.1936 30.5506 25.1761C30.3119 25.1572 30.0836 25.0699 29.8932 24.9246C29.7029 24.7793 29.5585 24.5822 29.4773 24.3569L22.7757 4.78453C22.6684 4.47707 22.6874 4.13957 22.8287 3.84616C22.9701 3.55276 23.2221 3.32745 23.5294 3.21973C23.8391 3.11541 24.1774 3.13785 24.4706 3.28213C24.7638 3.42642 24.988 3.68084 25.0942 3.98984L31.8122 23.554Z" fill="#3A3A3A"/>
<path d="M53.7603 147.534L55.2433 143.208H39.2593L41.0863 147.534H53.7603ZM36.4492 133.852H57.996L59.9541 132.402V118.884H35.2039L34.5157 132.418L36.4492 133.852ZM37.2684 136.31V140.759H57.1357V136.31H37.2684ZM21.1535 90.4309C17.5077 85.2122 14.0585 80.2802 12.7887 72.0711C9.69184 52.04 20.6373 41.3731 27.4454 36.7934C36.867 30.4522 51.7532 25.3236 69.138 36.9409C88.3581 49.787 82.6723 73.2427 82.6068 73.4803C80.9191 79.3462 78.0599 84.0079 75.2826 88.5139C73.8816 90.8078 72.4233 93.1755 71.1862 95.6497C67.7043 102.482 62.9935 116.131 62.4282 117.868V133.033C62.4263 133.225 62.3794 133.414 62.2912 133.585C62.2029 133.756 62.0759 133.903 61.9202 134.016L59.6099 135.72V141.996C59.6097 142.322 59.48 142.634 59.2495 142.864C59.0324 143.084 58.7393 143.213 58.4302 143.225H57.8649C57.8508 143.314 57.8289 143.402 57.7994 143.487L55.8495 149.222C55.7635 149.461 55.6056 149.669 55.3974 149.815C55.1892 149.962 54.9408 150.041 54.6861 150.041H40.226C40.0001 150.023 39.7834 149.944 39.5987 149.813C39.4141 149.682 39.2685 149.503 39.1774 149.295L36.7769 143.561C36.7362 143.452 36.7087 143.34 36.695 143.225H36.0067C35.6981 143.2 35.4103 143.06 35.2007 142.832C34.9911 142.604 34.8753 142.305 34.8762 141.996V135.712L32.5741 134.024C32.4106 133.905 32.2798 133.746 32.1939 133.563C32.108 133.38 32.0697 133.178 32.0825 132.976L32.8526 117.754C30.3374 103.539 25.4628 96.5755 21.1616 90.4309H21.1535ZM23.1607 89.03C27.5274 95.2728 32.4594 102.335 35.0647 116.451H38.9889C39.0299 112.944 38.9889 109.078 38.907 105.112L41.3648 105.063C41.4959 110.274 41.4877 114.46 41.4795 116.451H53.236C53.1705 114.141 53.0558 108.914 53.1377 102.589H55.5955C55.5218 107.439 55.5955 112.174 55.7266 116.41H60.3555C61.4943 113.133 65.7135 101.024 69.0397 94.5027C70.3424 91.9384 71.8253 89.5297 73.259 87.203C76.0691 82.6315 78.7235 78.3139 80.3129 72.7675C81.5991 68.2451 83.2787 49.2709 67.8354 38.9481C61.6418 34.8517 55.7922 32.951 50.4424 32.5578C41.7335 31.9023 34.3273 35.1303 28.8791 38.8006C21.1698 43.9948 12.5429 53.9079 15.2875 71.6615C16.4099 79.3135 19.5477 83.8031 23.1525 89.0054L23.1607 89.03Z" fill="#3A3A3A"/>
<path d="M15.4022 27.6913C15.6104 27.9413 15.7109 28.2638 15.6817 28.5878C15.6525 28.9119 15.496 29.2111 15.2465 29.42C15.0022 29.6243 14.6874 29.7244 14.3699 29.6985C14.2106 29.6837 14.0559 29.6369 13.9151 29.5609C13.7743 29.4849 13.6504 29.3812 13.5506 29.2561L0.278426 13.3541C0.071196 13.103 -0.0279177 12.78 0.00280255 12.4559C0.0335228 12.1318 0.191627 11.8331 0.44234 11.6254C0.565733 11.5207 0.708799 11.4418 0.863175 11.3933C1.01755 11.3448 1.18011 11.3276 1.34122 11.3429C1.50232 11.3582 1.65874 11.4055 1.80125 11.4822C1.94376 11.5589 2.06946 11.6633 2.17099 11.7893L15.4022 27.6913Z" fill="#3A3A3A"/>
</g>
<defs>
<clipPath id="clip0_54_399">
<rect width="91.7254" height="150" fill="white"/>
</clipPath>
</defs>
</svg>
