<svg width="88" height="150" viewBox="0 0 88 150" fill="none" xmlns="http://www.w3.org/2000/svg">
<g clip-path="url(#clip0_54_394)">
<path d="M85.4268 7.16905C86.9497 8.29185 87.6914 10.0996 87.5782 12.5079C87.2611 20.2945 86.8365 30.9667 79.2104 44.3336C74.0188 53.4339 67.593 55.8367 64.1451 57.1335C63.4497 57.3456 62.7839 57.6436 62.1636 58.0205V58.2282C61.8918 60.5749 61.8748 62.0401 63.862 62.5791C65.1981 62.9383 66.0757 61.9054 66.3927 61.4563C66.9589 60.6478 66.9928 59.8956 66.8853 59.7721C66.7994 59.7021 66.7285 59.616 66.6765 59.5186C66.6246 59.4213 66.5926 59.3146 66.5826 59.2049C66.5726 59.0952 66.5847 58.9846 66.6182 58.8796C66.6517 58.7746 66.7059 58.6772 66.7777 58.5931C66.923 58.4218 67.1308 58.3144 67.3556 58.2944C67.5805 58.2745 67.8042 58.3435 67.978 58.4865C68.7932 59.1601 68.8555 60.4963 68.1195 61.8998C67.5818 62.9434 66.6685 63.7489 65.5605 64.1566C64.8713 64.3899 64.1268 64.4095 63.4261 64.2127C59.848 63.2583 60.233 59.9966 60.4538 58.0373L60.4878 57.7791C60.5144 57.5648 60.5857 57.3583 60.6972 57.1728L61.3427 56.5328C62.0491 56.1296 62.7969 55.8021 63.5733 55.556C66.823 54.3377 72.8752 52.0697 77.7271 43.5027C84.5945 31.4664 85.4834 22.3156 85.8797 12.4406C85.9533 10.5936 85.4721 9.30798 84.4077 8.51079C82.0695 6.77046 77.3081 7.80905 75.6663 8.3536C75.562 8.38845 75.4517 8.40242 75.3419 8.39471C75.2321 8.387 75.1249 8.35776 75.0265 8.30869V6.80976C75.0641 6.78847 75.104 6.77152 75.1454 6.75923C75.4002 6.66941 81.9053 4.55294 85.4268 7.16905Z" fill="#3A3A3A"/>
<path d="M73.9337 0.460459C74.147 0.461401 74.352 0.542419 74.5074 0.687203C74.6629 0.831987 74.7573 1.02979 74.7716 1.2408C74.7716 1.57764 74.9528 3.63797 75.0094 6.81549V8.31442C75.066 20.1038 73.5884 43.5085 61.8803 55.9827C61.6991 56.1736 61.5066 56.3477 61.3142 56.5441L60.6687 57.1841C58.0761 59.6665 54.9641 61.5526 51.5537 62.7083C50.6483 63.0123 49.7258 63.2635 48.7909 63.4606L48.6096 87.1347C48.4624 106.346 67.2927 119.948 67.4626 120.083L67.5022 120.117C67.5312 120.138 67.5578 120.163 67.5814 120.19L67.6324 120.246L67.6834 120.313C67.6834 120.313 67.6833 120.358 67.723 120.386C67.7366 120.41 67.748 120.434 67.757 120.459C67.7595 120.485 67.7595 120.512 67.757 120.538C67.7595 120.564 67.7595 120.59 67.757 120.617C67.7597 120.648 67.7597 120.68 67.757 120.712C67.7592 120.732 67.7592 120.753 67.757 120.774L67.5984 141.495C67.5968 141.668 67.5416 141.836 67.4403 141.976C67.339 142.117 67.1966 142.223 67.0323 142.281C66.944 142.315 66.8498 142.332 66.7549 142.331C66.6434 142.33 66.5332 142.307 66.4308 142.263C66.3283 142.219 66.2355 142.156 66.1577 142.077C66.0799 141.998 66.0186 141.904 65.9772 141.801C65.936 141.698 65.9155 141.589 65.917 141.478L66.0642 121.605L17.9412 121.24L17.7826 141.978L66.7435 142.348H69.3196C69.533 142.361 69.7344 142.451 69.8857 142.601C69.965 142.68 70.0275 142.773 70.0693 142.877C70.1111 142.98 70.1315 143.09 70.1291 143.202L70.0895 149.164C70.0863 149.336 70.0305 149.503 69.9294 149.644C69.8283 149.784 69.6868 149.891 69.5234 149.95C69.4346 149.982 69.3405 149.997 69.246 149.994L15.4614 149.585C15.2363 149.584 15.0204 149.496 14.8613 149.338C14.7042 149.177 14.6169 148.961 14.6179 148.737L14.6631 142.781C14.6661 142.558 14.7575 142.345 14.9175 142.188C15.0775 142.032 15.2932 141.944 15.518 141.944H16.0842L16.2484 120.364V120.291C16.2484 120.263 16.2484 120.235 16.2484 120.207L16.2766 120.122C16.2742 120.098 16.2742 120.074 16.2766 120.05L16.3106 119.977C16.3106 119.977 16.3106 119.932 16.3559 119.904C16.3645 119.885 16.376 119.868 16.3899 119.853L16.4635 119.774C16.4767 119.757 16.4943 119.744 16.5145 119.735L16.5767 119.673C16.7636 119.544 35.7863 106.2 35.9335 87.0112L36.0694 69.1307L36.1147 63.3371C32.5446 62.5267 29.2094 60.9154 26.3655 58.6269C26.4958 60.4683 26.3655 62.8599 23.665 63.7581C23.5234 63.8086 23.3762 63.8479 23.2177 63.8928C21.1059 64.4206 19.3565 63.0564 18.5583 61.4732C17.8506 60.0641 17.9242 58.7224 18.7564 58.0599C18.8429 57.9907 18.9424 57.9391 19.049 57.9082C19.1557 57.8772 19.2675 57.8674 19.378 57.8794C19.4885 57.8914 19.5954 57.925 19.6928 57.9781C19.7901 58.0312 19.876 58.1029 19.9453 58.189C20.0278 58.2647 20.0943 58.3559 20.1408 58.4573C20.1873 58.5588 20.2129 58.6684 20.2161 58.7798C20.2192 58.8912 20.1999 59.0021 20.1593 59.106C20.1186 59.2099 20.0574 59.3047 19.9793 59.3848C19.9359 59.6829 19.9557 59.9867 20.0376 60.2767C20.1195 60.5668 20.2616 60.8366 20.4549 61.069C20.7606 61.535 21.6212 62.5792 22.9629 62.2479C24.9954 61.7315 24.9897 60.2718 24.7576 57.9252L24.7293 57.7175C24.1213 57.3243 23.4623 57.0146 22.7705 56.7968C19.3396 55.4494 12.959 52.9456 7.90329 43.7723C0.486681 30.2988 0.220576 19.6322 0.0337451 11.8175C-0.0285318 9.40914 0.718757 7.62951 2.26436 6.51233C5.00454 4.54182 9.46586 5.38953 11.4983 5.95093C11.6286 2.98675 11.8211 1.06677 11.855 0.741158C11.8749 0.532227 11.9733 0.338337 12.1306 0.19795C12.2879 0.0575625 12.4926 -0.0190646 12.7043 -0.016729L73.9337 0.460459ZM73.1298 2.14465L13.4459 1.69553C13.0099 7.07373 11.0058 39.4832 24.6331 54.5736C29.2699 59.7104 35.2881 62.3434 42.5405 62.3939C49.7929 62.4444 55.8847 59.9069 60.6574 54.8431C74.6301 39.9492 73.4355 7.5453 73.1298 2.13904V2.14465ZM47.0867 68.3896L47.1207 63.7637C45.6007 63.9866 44.0656 64.0917 42.5292 64.0781C40.9908 64.0633 39.4558 63.932 37.9377 63.6851L37.9037 68.311L47.0867 68.3896ZM19.6792 119.555L64.5243 119.892C59.5138 115.738 46.815 103.578 46.9395 87.1067L47.0697 70.0682L37.8924 70.0009L37.7622 87.0393C37.632 103.505 24.752 115.474 19.6792 119.555ZM68.5156 148.31V144.038L16.9957 143.645H16.4295L16.3956 147.923L68.5156 148.31ZM11.4077 7.7025C9.86214 7.25899 5.54809 6.23163 3.22686 7.9046C2.15683 8.67933 1.65291 9.9537 1.6982 11.8007C1.94731 21.6813 2.68899 30.8489 9.36394 42.9864C13.8479 51.1323 19.4471 53.6922 22.7761 55.0171C11.8889 42.1836 11.0511 19.2448 11.4077 7.7025Z" fill="#3A3A3A"/>
<path d="M64.1396 8.05606C64.2511 8.05532 64.3617 8.07637 64.465 8.11801C64.5683 8.15965 64.6623 8.22106 64.7417 8.29873C64.8211 8.37641 64.8843 8.46883 64.9276 8.57072C64.971 8.6726 64.9937 8.78196 64.9945 8.89255C64.9945 10.0153 64.9944 35.9688 58.5176 43.7329C58.4182 43.8526 58.2868 43.9421 58.1384 43.9912C58.0011 44.0373 57.8543 44.0482 57.7117 44.0227C57.5691 43.9971 57.4353 43.9361 57.3231 43.8452C57.237 43.7748 57.1659 43.6881 57.1139 43.5903C57.0619 43.4925 57.03 43.3854 57.02 43.2752C57.01 43.165 57.0221 43.054 57.0557 42.9485C57.0892 42.843 57.1436 42.7452 57.2155 42.6607C63.3017 35.3625 63.2903 9.1564 63.2903 8.89816C63.2903 8.78758 63.3123 8.67807 63.3549 8.5759C63.3976 8.47374 63.4602 8.3809 63.5391 8.30271C63.6179 8.22451 63.7116 8.16249 63.8146 8.12017C63.9176 8.07785 64.028 8.05606 64.1396 8.05606Z" fill="#3A3A3A"/>
<path d="M57.2268 125.938C57.3383 125.94 57.4485 125.963 57.5509 126.007C57.6534 126.051 57.7462 126.114 57.824 126.193C57.9018 126.272 57.9631 126.366 58.0044 126.469C58.0457 126.571 58.0662 126.681 58.0647 126.792L57.9854 137.15C57.986 137.26 57.9642 137.37 57.9214 137.472C57.8787 137.574 57.8157 137.667 57.7363 137.745C57.6421 137.834 57.5303 137.903 57.4079 137.947C57.3178 137.974 57.2246 137.989 57.1305 137.992L26.9376 137.756C26.8258 137.758 26.7147 137.737 26.6114 137.695C26.5081 137.652 26.4149 137.589 26.3375 137.509C26.1778 137.349 26.0883 137.133 26.0884 136.908L26.1676 126.55C26.1721 126.328 26.2639 126.116 26.4236 125.96C26.5833 125.804 26.7981 125.715 27.0225 125.714L57.2268 125.938ZM56.2983 136.296L56.3606 127.617L27.8604 127.409L27.7982 136.083L56.2983 136.296Z" fill="#3A3A3A"/>
</g>
<defs>
<clipPath id="clip0_54_394">
<rect width="87.5839" height="150" fill="white"/>
</clipPath>
</defs>
</svg>
